<svg width="16" height="17" viewBox="0 0 16 17" fill="none" xmlns="http://www.w3.org/2000/svg">
<g clip-path="url(#clip0_624_4710)">
<path d="M11.334 0.5H4.66732C3.78359 0.501059 2.93636 0.852588 2.31146 1.47748C1.68657 2.10237 1.33504 2.9496 1.33398 3.83333V13.8333C1.33398 14.5406 1.61494 15.2189 2.11503 15.719C2.61513 16.219 3.29341 16.5 4.00065 16.5H11.334C12.2177 16.4989 13.0649 16.1474 13.6898 15.5225C14.3147 14.8976 14.6663 14.0504 14.6673 13.1667V3.83333C14.6663 2.9496 14.3147 2.10237 13.6898 1.47748C13.0649 0.852588 12.2177 0.501059 11.334 0.5V0.5ZM13.334 3.83333V11.1667H5.33398V1.83333H11.334C11.8644 1.83333 12.3731 2.04405 12.7482 2.41912C13.1233 2.79419 13.334 3.3029 13.334 3.83333ZM4.00065 1.948V11.1667C3.5324 11.1663 3.07239 11.2898 2.66732 11.5247V3.83333C2.66738 3.41979 2.79562 3.01644 3.03441 2.6788C3.27319 2.34116 3.61076 2.08585 4.00065 1.948ZM11.334 15.1667H4.00065C3.64703 15.1667 3.30789 15.0262 3.05784 14.7761C2.80779 14.5261 2.66732 14.187 2.66732 13.8333C2.66732 13.4797 2.80779 13.1406 3.05784 12.8905C3.30789 12.6405 3.64703 12.5 4.00065 12.5H13.334V13.1667C13.334 13.6971 13.1233 14.2058 12.7482 14.5809C12.3731 14.956 11.8644 15.1667 11.334 15.1667Z" fill="#0E0B0B"/>
</g>
<defs>
<clipPath id="clip0_624_4710">
<rect width="16" height="16" fill="white" transform="translate(0 0.5)"/>
</clipPath>
</defs>
</svg>
