<svg width="137" height="73" viewBox="0 0 137 73" fill="none" xmlns="http://www.w3.org/2000/svg">
<path d="M9.82985 48.2611C11.5553 48.2611 12.9496 48.8101 14.0128 49.9082C15.0759 50.9887 15.6075 52.505 15.6075 54.4571V62.9536H11.9474V54.9538C11.9474 53.8035 11.6599 52.9233 11.0847 52.3133C10.5096 51.6859 9.72527 51.3722 8.73183 51.3722C7.72096 51.3722 6.91924 51.6859 6.32666 52.3133C5.75151 52.9233 5.46393 53.8035 5.46393 54.9538V62.9536H1.80388V48.4703H5.46393V50.2742C5.95194 49.6467 6.57066 49.1587 7.3201 48.8101C8.08697 48.4441 8.92355 48.2611 9.82985 48.2611ZM32.5518 55.3982C32.5518 55.9211 32.5169 56.3917 32.4472 56.81H21.8592C21.9463 57.8557 22.3123 58.6748 22.9572 59.2674C23.6021 59.86 24.3951 60.1563 25.3362 60.1563C26.6957 60.1563 27.663 59.5724 28.2381 58.4047H32.1858C31.7675 59.799 30.9657 60.9493 29.7806 61.8556C28.5954 62.7445 27.1401 63.1889 25.4147 63.1889C24.0204 63.1889 22.7655 62.8839 21.65 62.2739C20.552 61.6465 19.6893 60.7663 19.0619 59.6334C18.4519 58.5006 18.1469 57.1934 18.1469 55.7119C18.1469 54.2131 18.4519 52.8972 19.0619 51.7643C19.6719 50.6314 20.5259 49.76 21.6239 49.15C22.7219 48.54 23.9855 48.235 25.4147 48.235C26.7915 48.235 28.0203 48.5313 29.1009 49.1239C30.1989 49.7164 31.0442 50.5617 31.6368 51.6597C32.2468 52.7403 32.5518 53.9865 32.5518 55.3982ZM28.761 54.3525C28.7436 53.4113 28.4037 52.6619 27.7414 52.1042C27.0791 51.529 26.2687 51.2415 25.3101 51.2415C24.4038 51.2415 23.6369 51.5203 23.0095 52.078C22.3995 52.6183 22.0248 53.3765 21.8853 54.3525H28.761ZM41.2624 59.5811L44.9224 48.4703H48.8177L43.4584 62.9536H39.014L33.6808 48.4703H37.6023L41.2624 59.5811ZM64.3372 55.3982C64.3372 55.9211 64.3024 56.3917 64.2326 56.81H53.6446C53.7318 57.8557 54.0978 58.6748 54.7427 59.2674C55.3875 59.86 56.1805 60.1563 57.1217 60.1563C58.4811 60.1563 59.4484 59.5724 60.0236 58.4047H63.9712C63.5529 59.799 62.7512 60.9493 61.566 61.8556C60.3809 62.7445 58.9256 63.1889 57.2001 63.1889C55.8058 63.1889 54.5509 62.8839 53.4355 62.2739C52.3375 61.6465 51.4748 60.7663 50.8473 59.6334C50.2373 58.5006 49.9323 57.1934 49.9323 55.7119C49.9323 54.2131 50.2373 52.8972 50.8473 51.7643C51.4573 50.6314 52.3113 49.76 53.4093 49.15C54.5074 48.54 55.771 48.235 57.2001 48.235C58.577 48.235 59.8057 48.5313 60.8863 49.1239C61.9843 49.7164 62.8296 50.5617 63.4222 51.6597C64.0322 52.7403 64.3372 53.9865 64.3372 55.3982ZM60.5464 54.3525C60.529 53.4113 60.1892 52.6619 59.5269 52.1042C58.8646 51.529 58.0541 51.2415 57.0955 51.2415C56.1892 51.2415 55.4224 51.5203 54.7949 52.078C54.1849 52.6183 53.8102 53.3765 53.6708 54.3525H60.5464ZM70.6688 50.7186C71.1393 49.9517 71.7494 49.3504 72.4988 48.9147C73.2657 48.479 74.1371 48.2611 75.1131 48.2611V52.1042H74.1458C72.9955 52.1042 72.1241 52.3743 71.5315 52.9146C70.9563 53.4549 70.6688 54.3961 70.6688 55.7381V62.9536H67.0087V48.4703H70.6688V50.7186ZM81.2384 43.6076V62.9536H77.5783V43.6076H81.2384ZM83.9134 55.6597C83.9134 54.1956 84.2009 52.8972 84.7761 51.7643C85.3687 50.6314 86.1617 49.76 87.1551 49.15C88.166 48.54 89.2901 48.235 90.5276 48.235C91.6082 48.235 92.5493 48.4528 93.3511 48.8886C94.1702 49.3243 94.8238 49.8733 95.3118 50.5356V48.4703H98.998V62.9536H95.3118V60.836C94.8412 61.5157 94.1876 62.0822 93.3511 62.5353C92.5319 62.971 91.582 63.1889 90.5015 63.1889C89.2814 63.1889 88.166 62.8752 87.1551 62.2477C86.1617 61.6203 85.3687 60.7402 84.7761 59.6073C84.2009 58.457 83.9134 57.1411 83.9134 55.6597ZM95.3118 55.7119C95.3118 54.8231 95.1375 54.0649 94.7889 53.4375C94.4404 52.7926 93.9698 52.3046 93.3772 51.9735C92.7846 51.6249 92.1485 51.4506 91.4687 51.4506C90.789 51.4506 90.1616 51.6162 89.5864 51.9473C89.0113 52.2785 88.5407 52.7665 88.1747 53.4113C87.8261 54.0388 87.6518 54.7882 87.6518 55.6597C87.6518 56.5311 87.8261 57.298 88.1747 57.9603C88.5407 58.6051 89.0113 59.1018 89.5864 59.4504C90.179 59.799 90.8065 59.9733 91.4687 59.9733C92.1485 59.9733 92.7846 59.8077 93.3772 59.4766C93.9698 59.128 94.4404 58.64 94.7889 58.0125C95.1375 57.3677 95.3118 56.6008 95.3118 55.7119ZM110.599 48.2611C112.324 48.2611 113.718 48.8101 114.782 49.9082C115.845 50.9887 116.376 52.505 116.376 54.4571V62.9536H112.716V54.9538C112.716 53.8035 112.429 52.9233 111.854 52.3133C111.278 51.6859 110.494 51.3722 109.501 51.3722C108.49 51.3722 107.688 51.6859 107.095 52.3133C106.52 52.9233 106.233 53.8035 106.233 54.9538V62.9536H102.573V48.4703H106.233V50.2742C106.721 49.6467 107.339 49.1587 108.089 48.8101C108.856 48.4441 109.692 48.2611 110.599 48.2611ZM118.916 55.6597C118.916 54.1956 119.203 52.8972 119.778 51.7643C120.371 50.6314 121.173 49.76 122.184 49.15C123.194 48.54 124.319 48.235 125.556 48.235C126.497 48.235 127.395 48.4441 128.249 48.8624C129.103 49.2633 129.783 49.8036 130.288 50.4833V43.6076H134V62.9536H130.288V60.8099C129.835 61.5245 129.199 62.0996 128.379 62.5353C127.56 62.971 126.61 63.1889 125.53 63.1889C124.31 63.1889 123.194 62.8752 122.184 62.2477C121.173 61.6203 120.371 60.7402 119.778 59.6073C119.203 58.457 118.916 57.1411 118.916 55.6597ZM130.314 55.7119C130.314 54.8231 130.14 54.0649 129.791 53.4375C129.443 52.7926 128.972 52.3046 128.379 51.9735C127.787 51.6249 127.151 51.4506 126.471 51.4506C125.791 51.4506 125.164 51.6162 124.589 51.9473C124.014 52.2785 123.543 52.7665 123.177 53.4113C122.828 54.0388 122.654 54.7882 122.654 55.6597C122.654 56.5311 122.828 57.298 123.177 57.9603C123.543 58.6051 124.014 59.1018 124.589 59.4504C125.181 59.799 125.809 59.9733 126.471 59.9733C127.151 59.9733 127.787 59.8077 128.379 59.4766C128.972 59.128 129.443 58.64 129.791 58.0125C130.14 57.3677 130.314 56.6008 130.314 55.7119Z" fill="#00A6A6"/>
<path d="M88.9519 20.0322L87.3506 19.6074L88.233 15.065C88.4508 14.0516 88.7796 13.0653 89.2133 12.1239C90.2452 9.97145 91.7274 8.06576 93.5596 6.5358L93.9845 6.14365C95.7635 4.4593 97.7916 3.05943 99.9974 1.99342C93.6589 2.65084 87.5095 4.53786 81.8932 7.54885C80.441 8.37974 79.0536 9.31922 77.743 10.3592L76.3051 11.3723L75.3574 10.0325L76.7626 9.01941C78.1416 7.94949 79.5939 6.97762 81.1089 6.11098C88.5399 2.13475 96.8309 0.0367829 105.259 0L111.631 0L105.487 1.66663C101.609 2.68005 98.0401 4.63293 95.0956 7.35278L94.7688 7.74493C93.1069 9.13426 91.7591 10.8608 90.8146 12.8102C90.444 13.6507 90.1593 14.5266 89.9649 15.4245L88.9519 20.0322Z" fill="#F49F0A"/>
<path d="M87.8083 18.9542L87.5469 18.7254C84.3966 15.6588 80.8721 13.0017 77.0569 10.8171C76.7781 10.6087 76.483 10.423 76.1746 10.2616L75.521 9.80406C73.9524 8.95441 72.5472 8.23547 71.3054 7.67993C61.425 3.40999 50.5753 1.88584 39.9009 3.26826C36.9456 3.71456 34.0363 4.42546 31.2083 5.3924L27.875 6.53616L31.3717 6.99367C40.1598 7.97943 48.5053 11.3719 55.4888 16.7974C59.1783 19.9689 62.5494 23.4932 65.5539 27.32C68.8218 31.3069 71.24 34.0846 73.4295 34.0846C73.7426 34.0942 74.0542 34.0386 74.3445 33.9212C75.7497 33.3656 76.1092 31.8951 76.5667 30.1958C76.9856 27.93 78.0265 25.8254 79.5732 24.1175C81.1504 22.5161 83.1417 21.3847 85.3247 20.8496L87.0894 20.4574C87.7226 20.4141 88.3482 20.2933 88.9521 20.098C88.6341 19.6583 88.248 19.2721 87.8083 18.9542ZM84.9652 19.2156C82.498 19.8279 80.2406 21.092 78.4294 22.8757C76.7411 24.8013 75.6111 27.1517 75.1615 29.6729C74.8021 31.1761 74.5406 32.0585 73.9524 32.2872C72.5799 32.8101 69.8675 29.5749 67.0245 26.1436C63.8763 22.2753 60.3634 18.7187 56.5345 15.5229C50.2978 10.5954 42.9289 7.30411 35.0971 5.94794C36.7635 5.50024 38.4548 5.15106 40.1623 4.90221C50.5344 3.58415 61.0699 5.09728 70.6518 9.2812C72.2758 9.99697 73.8578 10.8044 75.3903 11.6994C79.0447 13.7588 82.4542 16.2255 85.5535 19.0522L84.9652 19.2156Z" fill="#F49F0A"/>
</svg>
