<svg width="64" height="33" viewBox="0 0 64 33" fill="none" xmlns="http://www.w3.org/2000/svg">
<path d="M5.26934 21.7388C6.03589 21.7388 6.65532 21.9827 7.12764 22.4705C7.59996 22.9506 7.83611 23.6242 7.83611 24.4914V28.2661H6.21011V24.7121C6.21011 24.2011 6.08235 23.8101 5.82683 23.5391C5.57132 23.2603 5.22288 23.121 4.78154 23.121C4.33245 23.121 3.97628 23.2603 3.71302 23.5391C3.4575 23.8101 3.32974 24.2011 3.32974 24.7121V28.2661H1.70373V21.8318H3.32974V22.6331C3.54655 22.3544 3.82142 22.1376 4.15436 21.9827C4.49505 21.8201 4.86671 21.7388 5.26934 21.7388ZM15.3638 24.9096C15.3638 25.1419 15.3483 25.3509 15.3173 25.5367H10.6135C10.6522 26.0013 10.8148 26.3652 11.1013 26.6285C11.3878 26.8917 11.7401 27.0234 12.1582 27.0234C12.7621 27.0234 13.1919 26.764 13.4474 26.2452H15.2012C15.0153 26.8646 14.6592 27.3757 14.1326 27.7783C13.6061 28.1732 12.9596 28.3706 12.193 28.3706C11.5736 28.3706 11.0161 28.2351 10.5206 27.9641C10.0328 27.6854 9.6495 27.2944 9.37075 26.7911C9.09975 26.2878 8.96425 25.7071 8.96425 25.0489C8.96425 24.383 9.09975 23.7985 9.37075 23.2952C9.64175 22.7919 10.0212 22.4047 10.509 22.1337C10.9968 21.8627 11.5581 21.7272 12.193 21.7272C12.8047 21.7272 13.3506 21.8589 13.8307 22.1221C14.3185 22.3854 14.694 22.7609 14.9573 23.2487C15.2283 23.7288 15.3638 24.2824 15.3638 24.9096ZM13.6797 24.445C13.6719 24.0269 13.5209 23.6939 13.2267 23.4462C12.9325 23.1906 12.5724 23.0629 12.1466 23.0629C11.744 23.0629 11.4033 23.1868 11.1245 23.4345C10.8535 23.6746 10.687 24.0114 10.6251 24.445H13.6797ZM19.2335 26.7679L20.8595 21.8318H22.5901L20.2091 28.2661H18.2347L15.8654 21.8318H17.6075L19.2335 26.7679ZM29.4847 24.9096C29.4847 25.1419 29.4692 25.3509 29.4383 25.5367H24.7345C24.7732 26.0013 24.9358 26.3652 25.2223 26.6285C25.5088 26.8917 25.8611 27.0234 26.2792 27.0234C26.8831 27.0234 27.3128 26.764 27.5684 26.2452H29.3221C29.1363 26.8646 28.7801 27.3757 28.2536 27.7783C27.7271 28.1732 27.0806 28.3706 26.314 28.3706C25.6946 28.3706 25.1371 28.2351 24.6415 27.9641C24.1537 27.6854 23.7705 27.2944 23.4917 26.7911C23.2207 26.2878 23.0852 25.7071 23.0852 25.0489C23.0852 24.383 23.2207 23.7985 23.4917 23.2952C23.7627 22.7919 24.1421 22.4047 24.6299 22.1337C25.1177 21.8627 25.6791 21.7272 26.314 21.7272C26.9257 21.7272 27.4716 21.8589 27.9516 22.1221C28.4394 22.3854 28.815 22.7609 29.0782 23.2487C29.3492 23.7288 29.4847 24.2824 29.4847 24.9096ZM27.8007 24.445C27.7929 24.0269 27.6419 23.6939 27.3477 23.4462C27.0535 23.1906 26.6934 23.0629 26.2676 23.0629C25.8649 23.0629 25.5242 23.1868 25.2455 23.4345C24.9745 23.6746 24.808 24.0114 24.7461 24.445H27.8007ZM32.2976 22.8306C32.5066 22.4899 32.7776 22.2228 33.1106 22.0292C33.4513 21.8356 33.8384 21.7388 34.272 21.7388V23.4462H33.8423C33.3313 23.4462 32.9441 23.5662 32.6809 23.8062C32.4253 24.0462 32.2976 24.4643 32.2976 25.0606V28.2661H30.6716V21.8318H32.2976V22.8306ZM36.9932 19.6715V28.2661H35.3672V19.6715H36.9932ZM38.1816 25.0257C38.1816 24.3753 38.3094 23.7985 38.5649 23.2952C38.8281 22.7919 39.1805 22.4047 39.6218 22.1337C40.0709 21.8627 40.5703 21.7272 41.12 21.7272C41.6001 21.7272 42.0182 21.824 42.3744 22.0176C42.7383 22.2112 43.0287 22.4551 43.2455 22.7493V21.8318H44.8831V28.2661H43.2455V27.3254C43.0364 27.6273 42.7461 27.879 42.3744 28.0803C42.0105 28.2739 41.5885 28.3706 41.1084 28.3706C40.5664 28.3706 40.0709 28.2313 39.6218 27.9525C39.1805 27.6738 38.8281 27.2828 38.5649 26.7795C38.3094 26.2684 38.1816 25.6839 38.1816 25.0257ZM43.2455 25.0489C43.2455 24.654 43.168 24.3172 43.0132 24.0385C42.8583 23.752 42.6493 23.5352 42.386 23.3881C42.1228 23.2332 41.8401 23.1558 41.5382 23.1558C41.2362 23.1558 40.9574 23.2294 40.7019 23.3765C40.4464 23.5236 40.2374 23.7404 40.0748 24.0269C39.9199 24.3056 39.8425 24.6386 39.8425 25.0257C39.8425 25.4129 39.9199 25.7535 40.0748 26.0478C40.2374 26.3343 40.4464 26.5549 40.7019 26.7098C40.9652 26.8646 41.2439 26.9421 41.5382 26.9421C41.8401 26.9421 42.1228 26.8685 42.386 26.7214C42.6493 26.5665 42.8583 26.3497 43.0132 26.071C43.168 25.7845 43.2455 25.4438 43.2455 25.0489ZM50.0368 21.7388C50.8033 21.7388 51.4228 21.9827 51.8951 22.4705C52.3674 22.9506 52.6036 23.6242 52.6036 24.4914V28.2661H50.9776V24.7121C50.9776 24.2011 50.8498 23.8101 50.5943 23.5391C50.3388 23.2603 49.9903 23.121 49.549 23.121C49.0999 23.121 48.7437 23.2603 48.4805 23.5391C48.225 23.8101 48.0972 24.2011 48.0972 24.7121V28.2661H46.4712V21.8318H48.0972V22.6331C48.314 22.3544 48.5889 22.1376 48.9218 21.9827C49.2625 21.8201 49.6342 21.7388 50.0368 21.7388ZM53.7317 25.0257C53.7317 24.3753 53.8595 23.7985 54.115 23.2952C54.3782 22.7919 54.7344 22.4047 55.1835 22.1337C55.6326 21.8627 56.132 21.7272 56.6817 21.7272C57.0999 21.7272 57.4986 21.8201 57.878 22.006C58.2574 22.1841 58.5594 22.4241 58.7839 22.7261V19.6715H60.4332V28.2661H58.7839V27.3137C58.5826 27.6312 58.3 27.8867 57.9361 28.0803C57.5722 28.2739 57.1502 28.3706 56.6701 28.3706C56.1281 28.3706 55.6326 28.2313 55.1835 27.9525C54.7344 27.6738 54.3782 27.2828 54.115 26.7795C53.8595 26.2684 53.7317 25.6839 53.7317 25.0257ZM58.7956 25.0489C58.7956 24.654 58.7181 24.3172 58.5633 24.0385C58.4084 23.752 58.1994 23.5352 57.9361 23.3881C57.6728 23.2332 57.3902 23.1558 57.0883 23.1558C56.7863 23.1558 56.5075 23.2294 56.252 23.3765C55.9965 23.5236 55.7874 23.7404 55.6248 24.0269C55.47 24.3056 55.3926 24.6386 55.3926 25.0257C55.3926 25.4129 55.47 25.7535 55.6248 26.0478C55.7874 26.3343 55.9965 26.5549 56.252 26.7098C56.5153 26.8646 56.794 26.9421 57.0883 26.9421C57.3902 26.9421 57.6728 26.8685 57.9361 26.7214C58.1994 26.5665 58.4084 26.3497 58.5633 26.071C58.7181 25.7845 58.7956 25.4438 58.7956 25.0489Z" fill="#00A6A6"/>
<path d="M41.7019 9.00692L40.9675 8.8159L41.3722 6.77355C41.4721 6.31791 41.6229 5.87444 41.8218 5.45117C42.2951 4.48338 42.9749 3.62654 43.8153 2.93863L44.0101 2.76232C44.8261 2.00499 45.7563 1.37558 46.768 0.896284C43.8608 1.19188 41.0404 2.04032 38.4645 3.39412C37.7984 3.76771 37.1621 4.19012 36.5609 4.65774L35.9015 5.11322L35.4668 4.5108L36.1113 4.05532C36.7438 3.57426 37.4099 3.13729 38.1047 2.74762C41.513 0.95983 45.3156 0.0165384 49.1811 0L52.1038 0L49.286 0.749352C47.5072 1.20501 45.8703 2.08306 44.5197 3.30596L44.3698 3.48228C43.6076 4.10696 42.9894 4.88324 42.5563 5.75972C42.3863 6.13766 42.2557 6.53148 42.1666 6.93518L41.7019 9.00692Z" fill="#F49F0A"/>
<path d="M41.176 8.52201L41.0561 8.41915C39.6112 7.04033 37.9947 5.84565 36.2449 4.86341C36.117 4.76971 35.9817 4.68619 35.8402 4.61362L35.5404 4.40792C34.821 4.0259 34.1765 3.70265 33.6069 3.45286C29.0753 1.53301 24.099 0.847721 19.2032 1.46928C17.8477 1.66995 16.5134 1.98958 15.2163 2.42434L13.6875 2.9386L15.2912 3.14431C19.322 3.58753 23.1496 5.11286 26.3526 7.55226C28.0448 8.97826 29.591 10.5628 30.969 12.2835C32.4678 14.076 33.577 15.3249 34.5812 15.3249C34.7248 15.3293 34.8677 15.3043 35.0008 15.2515C35.6453 15.0017 35.8102 14.3405 36.0201 13.5765C36.2122 12.5577 36.6896 11.6115 37.399 10.8435C38.1224 10.1235 39.0357 9.61481 40.0369 9.37421L40.8463 9.19789C41.1367 9.17839 41.4236 9.12412 41.7006 9.03627C41.5548 8.83857 41.3777 8.66497 41.176 8.52201ZM39.872 8.63955C38.7404 8.91483 37.7051 9.4832 36.8744 10.2852C36.1 11.151 35.5817 12.2078 35.3756 13.3414C35.2107 14.0173 35.0908 14.414 34.821 14.5168C34.1915 14.7519 32.9475 13.2973 31.6435 11.7545C30.1996 10.0153 28.5884 8.41614 26.8322 6.97922C23.9718 4.76372 20.592 3.28389 16.9999 2.67412C17.7642 2.47283 18.54 2.31583 19.3231 2.20394C24.0803 1.61131 28.9124 2.29165 33.3072 4.17283C34.052 4.49465 34.7776 4.85767 35.4805 5.26012C37.1566 6.18606 38.7204 7.29511 40.1418 8.56609L39.872 8.63955Z" fill="#F49F0A"/>
</svg>
