<svg width="1196" height="282" viewBox="0 0 1196 282" fill="none" xmlns="http://www.w3.org/2000/svg">
<rect width="1206" height="263" fill="#F49F0A"/>
<path d="M122.778 14.673L124.973 14.7067L125.48 8.53385C125.566 7.14909 125.501 5.75897 125.286 4.3886C124.743 1.2408 123.537 -1.75245 121.749 -4.38862L121.348 -5.04804C119.684 -7.86382 117.6 -10.4035 115.17 -12.5774C123.018 -9.43026 130.184 -4.76742 136.266 1.15011C137.82 2.74766 139.252 4.46157 140.55 6.2772L142.02 8.10424L143.71 6.72181L142.282 4.90662C140.908 3.02768 139.404 1.24846 137.783 -0.417935C129.733 -8.23766 119.912 -13.9494 109.175 -17.055L101.047 -19.3674L108.284 -14.9907C112.867 -12.2776 116.718 -8.46626 119.497 -3.89332L119.773 -3.26947C121.394 -0.87631 122.492 1.83732 122.997 4.69175C123.168 5.90928 123.216 7.14113 123.141 8.36851L122.778 14.673Z" fill="white" fill-opacity="0.4"/>
<path d="M124.624 13.6987L125.04 13.4988C130.16 10.6907 135.61 8.54613 141.261 7.1158C141.691 6.9485 142.135 6.81621 142.586 6.72019L143.584 6.36788C145.89 5.84234 147.941 5.42593 149.724 5.16076C163.86 3.24448 178.247 5.21776 191.366 10.8724C194.975 12.5199 198.43 14.4915 201.69 16.7636L205.531 19.4469L200.907 18.7675C189.343 16.8486 177.48 18.1913 166.623 22.6477C160.778 25.3952 155.212 28.7129 150.005 32.5533C144.404 36.5043 140.322 39.2057 137.529 38.4112C137.127 38.3101 136.749 38.1253 136.421 37.8687C134.828 36.643 134.898 34.6178 134.925 32.2623C135.204 29.1909 134.633 26.1015 133.273 23.3397C131.837 20.704 129.704 18.5237 127.111 17.042L125.001 15.8964C124.209 15.6107 123.455 15.2282 122.755 14.7573C123.318 14.3062 123.949 13.9488 124.624 13.6987ZM128.157 15.0672C131.084 16.7513 133.509 19.1992 135.178 22.1547C136.64 25.2484 137.237 28.6869 136.905 32.0985C136.823 34.1658 136.84 35.3975 137.508 35.9057C139.071 37.0774 143.693 33.8932 148.552 30.5038C153.957 26.6622 159.715 23.3544 165.747 20.6261C175.472 16.5404 186.054 14.9737 196.53 16.0683C194.566 14.8867 192.534 13.8231 190.445 12.8828C177.689 7.42079 163.707 5.54733 149.982 7.46109C147.654 7.79403 145.346 8.26023 143.07 8.85743C137.669 10.1847 132.434 12.1257 127.465 14.6432L128.157 15.0672Z" fill="white" fill-opacity="0.4"/>
<path d="M728.78 69.7197L727.933 71.7655L733.417 74.5361C734.657 75.1319 735.959 75.5879 737.298 75.8959C740.393 76.5576 743.592 76.54 746.679 75.8444L747.434 75.7136C750.641 75.2005 753.75 74.1909 756.651 72.7203C750.84 78.9094 743.89 83.8944 736.19 87.3965C734.144 88.2594 732.037 88.9648 729.886 89.5068L727.66 90.2057L728.302 92.3047L730.501 91.6404C732.739 91.0503 734.933 90.3024 737.067 89.4021C747.247 84.7621 756.149 77.677 762.996 68.7645L768.144 62.0029L761.43 67.1617C757.232 70.4498 752.298 72.6431 747.062 73.548L746.386 73.5747C743.584 74.2043 740.682 74.2255 737.871 73.6368C736.689 73.3441 735.539 72.9314 734.439 72.405L728.78 69.7197Z" fill="white" fill-opacity="0.4"/>
<path d="M728.989 71.8148L729.018 72.2789C729.694 78.1241 729.638 84.0321 728.851 89.8631C728.844 90.329 728.801 90.7937 728.721 91.2526L728.674 92.3195C728.299 94.6772 727.919 96.7549 727.499 98.5259C724.003 112.494 716.839 125.25 706.763 135.448C703.907 138.22 700.81 140.727 697.51 142.938L693.615 145.542L695.96 141.458C702.024 131.329 705.202 119.705 705.145 107.868C704.794 101.365 703.816 94.9122 702.223 88.6013C700.675 81.8803 699.711 77.0477 701.48 74.7245C701.723 74.3844 702.033 74.0992 702.391 73.8869C704.109 72.8493 705.945 73.6679 708.099 74.5692C710.817 75.9738 713.869 76.5867 716.913 76.3393C719.869 75.9726 722.666 74.783 724.992 72.9034L726.829 71.351C727.386 70.7144 728.018 70.1492 728.711 69.6679C728.916 70.3641 729.01 71.0888 728.989 71.8148ZM726.417 74.6182C723.781 76.7365 720.63 78.1001 717.293 78.5663C713.906 78.7863 710.525 78.0673 707.513 76.4869C705.644 75.6416 704.506 75.1989 703.79 75.6364C702.132 76.6661 703.339 82.1842 704.647 88.001C706.167 94.4981 707.065 101.128 707.328 107.799C707.466 118.437 704.97 128.942 700.068 138.359C701.884 136.956 703.617 135.446 705.258 133.838C715.022 123.908 721.944 111.494 725.29 97.9127C725.85 95.6054 726.28 93.2679 726.577 90.9114C727.366 85.3533 727.53 79.7227 727.064 74.1274L726.417 74.6182Z" fill="white" fill-opacity="0.4"/>
<path d="M829.195 32.063L831.319 31.5022L830.172 25.4175C829.888 24.06 829.457 22.7381 828.887 21.4758C827.53 18.5896 825.575 16.0314 823.155 13.9745L822.594 13.4475C820.244 11.1841 817.564 9.30035 814.646 7.86262C823.042 8.77367 831.182 11.3297 838.609 15.3876C840.53 16.5069 842.364 17.7713 844.095 19.1699L845.996 20.533L847.258 18.7441L845.401 17.3812C843.579 15.9423 841.659 14.6343 839.656 13.4668C829.828 8.10791 818.851 5.25903 807.684 5.16852L799.239 5.13731L807.372 7.3983C812.507 8.77383 817.227 11.4054 821.116 15.0605L821.547 15.587C823.742 17.4549 825.52 19.7726 826.762 22.3866C827.249 23.5136 827.622 24.6874 827.875 25.8902L829.195 32.063Z" fill="white" fill-opacity="0.4"/>
<path d="M830.717 30.6256L831.065 30.3206C835.254 26.2312 839.937 22.6917 845.004 19.7861C845.374 19.5086 845.766 19.2613 846.176 19.0468L847.044 18.4376C849.127 17.308 850.992 16.3525 852.64 15.615C865.754 9.94772 880.138 7.96066 894.277 9.8634C898.191 10.4753 902.042 11.4411 905.785 12.7493L910.197 14.2966L905.561 14.8919C893.911 16.1684 882.835 20.6686 873.555 27.8968C868.651 32.1241 864.167 36.8251 860.167 41.9328C855.817 47.2535 852.599 50.9598 849.698 50.9491C849.283 50.9605 848.87 50.8845 848.486 50.7259C846.627 49.9754 846.157 48.0052 845.559 45.7283C845.015 42.6933 843.646 39.8711 841.605 37.5773C839.523 35.426 836.889 33.9018 833.999 33.1748L831.663 32.6413C830.824 32.5801 829.995 32.4155 829.196 32.151C829.62 31.564 830.133 31.049 830.717 30.6256ZM834.483 30.9894C837.75 31.821 840.735 33.5242 843.126 35.9207C845.354 38.5065 846.84 41.6583 847.424 45.0353C847.893 47.0492 848.235 48.2316 849.013 48.5407C850.83 49.2473 854.44 44.93 858.224 40.3509C862.414 35.1884 867.086 30.4448 872.176 26.1857C880.464 19.6204 890.245 15.2508 900.629 13.4739C898.423 12.8664 896.184 12.3907 893.922 12.0493C880.184 10.2342 866.216 12.208 853.499 17.7616C851.343 18.7117 849.243 19.7847 847.208 20.9754C842.355 23.7141 837.825 26.9992 833.705 30.7678L834.483 30.9894Z" fill="white" fill-opacity="0.4"/>
<path d="M806.399 117.48L808.13 118.844L812.219 114.229C813.115 113.177 813.893 112.028 814.539 110.804C815.985 107.962 816.81 104.84 816.958 101.648L817.032 100.878C817.386 97.618 817.24 94.3226 816.599 91.1078C820.981 98.3995 823.913 106.484 825.232 114.91C825.517 117.131 825.637 119.37 825.588 121.609L825.67 123.962L827.844 123.889L827.788 121.571C827.813 119.235 827.676 116.9 827.378 114.583C825.625 103.441 821.2 92.902 814.49 83.8841L809.387 77.088L812.547 84.9883C814.583 89.9443 815.379 95.3304 814.866 100.671L814.714 101.337C814.578 104.233 813.834 107.067 812.532 109.651C811.942 110.727 811.245 111.739 810.453 112.672L806.399 117.48Z" fill="white" fill-opacity="0.4"/>
<path d="M808.455 117.828L808.906 117.922C814.667 118.801 820.294 120.41 825.656 122.712C826.099 122.841 826.532 123.005 826.949 123.203L827.956 123.53C830.109 124.516 831.993 125.433 833.574 126.308C845.995 133.391 856.293 143.729 863.382 156.231C865.277 159.744 866.856 163.422 868.1 167.22L869.562 171.701L866.279 168.341C858.2 159.766 847.935 153.61 836.615 150.552C830.312 149.182 823.891 148.438 817.445 148.33C810.619 148.07 805.749 147.738 803.996 145.403C803.735 145.077 803.544 144.699 803.436 144.295C802.897 142.346 804.162 140.774 805.589 138.911C807.646 136.631 809.034 133.819 809.599 130.787C810.027 127.81 809.626 124.771 808.443 122.01L807.444 119.811C806.983 119.1 806.609 118.336 806.332 117.533C807.051 117.517 807.767 117.616 808.455 117.828ZM810.456 121.072C811.786 124.198 812.259 127.628 811.826 131.003C811.145 134.361 809.568 137.468 807.267 139.987C805.967 141.586 805.245 142.579 805.475 143.391C806.022 145.278 811.61 145.553 817.509 145.81C824.114 146.038 830.682 146.907 837.123 148.405C847.32 151.071 856.696 156.267 864.399 163.522C863.538 161.383 862.552 159.297 861.447 157.274C854.532 145.146 844.498 135.135 832.407 128.3C830.351 127.147 828.232 126.113 826.059 125.203C820.959 122.971 815.624 121.331 810.158 120.312L810.456 121.072Z" fill="white" fill-opacity="0.4"/>
<path d="M635.651 22.9794L637.801 22.5307L636.968 16.3942C636.755 15.0235 636.393 13.6809 635.888 12.3904C634.681 9.43685 632.86 6.77962 630.549 4.59851L630.016 4.0428C627.786 1.6593 625.206 -0.362506 622.366 -1.95132C630.704 -0.601175 638.701 2.37828 645.91 6.82027C647.77 8.03879 649.537 9.39761 651.194 10.8851L653.022 12.346L654.375 10.6258L652.59 9.16732C650.844 7.63479 648.994 6.22785 647.054 4.95687C637.514 -0.910163 626.699 -4.33085 615.551 -5.00691L607.12 -5.48092L615.126 -2.79645C620.183 -1.15352 624.761 1.72201 628.457 5.57616L628.86 6.12458C630.957 8.10507 632.613 10.5128 633.719 13.1885C634.147 14.3395 634.459 15.5313 634.65 16.7458L635.651 22.9794Z" fill="white" fill-opacity="0.4"/>
<path d="M637.246 21.6229L637.609 21.3366C642.003 17.4724 646.861 14.1833 652.07 11.5474C652.454 11.2896 652.858 11.0632 653.278 10.8705L654.177 10.3076C656.315 9.28875 658.227 8.4324 659.911 7.78228C673.298 2.8104 687.765 1.58041 701.787 4.22204C705.664 5.03835 709.461 6.20488 713.131 7.70758L717.457 9.48418L712.797 9.83554C701.097 10.4993 689.805 14.4127 680.166 21.1444C675.051 25.1088 670.331 29.5683 666.074 34.4594C661.457 39.5447 658.053 43.0773 655.156 42.9145C654.741 42.9041 654.333 42.8065 653.957 42.628C652.139 41.781 651.772 39.7888 651.292 37.4837C650.904 34.4242 649.682 31.534 647.761 29.1363C645.793 26.8787 643.241 25.2184 640.392 24.3409L638.086 23.6855C637.252 23.5804 636.433 23.3726 635.648 23.0665C636.101 22.5025 636.641 22.0152 637.246 21.6229ZM640.988 22.1838C644.208 23.1856 647.101 25.043 649.366 27.5617C651.458 30.2609 652.78 33.4863 653.189 36.8894C653.554 38.9252 653.835 40.1239 654.597 40.4734C656.374 41.2743 660.201 37.1521 664.215 32.7776C668.665 27.8419 673.575 23.3497 678.877 19.3632C687.491 13.2415 697.483 9.39077 707.945 8.1608C705.773 7.43849 703.561 6.84599 701.32 6.38639C687.694 3.85326 673.643 5.0919 660.658 9.97102C658.456 10.8069 656.304 11.7683 654.21 12.8506C649.223 15.3311 644.531 18.3742 640.222 21.9217L640.988 22.1838Z" fill="white" fill-opacity="0.4"/>
<path d="M577.472 156.404L578.157 154.297L572.473 151.973C571.19 151.479 569.856 151.128 568.497 150.928C565.36 150.515 562.173 150.789 559.15 151.729L558.407 151.919C555.251 152.687 552.231 153.942 549.453 155.639C554.762 149.006 561.3 143.481 568.701 139.375C570.673 138.351 572.719 137.48 574.821 136.768L576.985 135.893L576.181 133.852L574.041 134.69C571.856 135.457 569.727 136.378 567.67 137.446C557.886 142.884 549.566 150.658 543.438 160.09L538.836 167.241L545.125 161.562C549.052 157.949 553.799 155.369 558.948 154.048L559.62 153.968C562.363 153.116 565.255 152.863 568.103 153.226C569.305 153.423 570.483 153.743 571.621 154.179L577.472 156.404Z" fill="white" fill-opacity="0.4"/>
<path d="M577.102 154.333L577.036 153.873C575.905 148.1 575.498 142.206 575.827 136.331C575.797 135.866 575.803 135.399 575.847 134.935L575.811 133.868C576 131.487 576.216 129.386 576.495 127.587C578.888 113.383 585.031 100.095 594.277 89.1238C596.907 86.1327 599.798 83.3865 602.915 80.9181L606.593 78.0117L604.576 82.2697C599.324 92.8516 597.065 104.693 598.049 116.488C598.907 122.943 600.388 129.298 602.47 135.461C604.539 142.038 605.878 146.778 604.297 149.235C604.081 149.594 603.794 149.903 603.454 150.143C601.822 151.315 599.929 150.645 597.71 149.919C594.891 148.736 591.8 148.369 588.786 148.858C585.868 149.46 583.172 150.869 581.001 152.929L579.291 154.623C578.785 155.302 578.199 155.916 577.546 156.451C577.287 155.774 577.137 155.059 577.102 154.333ZM579.445 151.333C581.908 149.011 584.942 147.4 588.232 146.669C591.591 146.179 595.019 146.626 598.144 147.961C600.074 148.654 601.243 149.004 601.922 148.511C603.494 147.352 601.859 141.948 600.1 136.254C598.077 129.898 596.662 123.361 595.877 116.732C594.908 106.138 596.573 95.4666 600.723 85.6877C599.022 87.2312 597.413 88.8746 595.903 90.6093C586.947 101.288 581.019 114.216 578.746 128.022C578.369 130.366 578.123 132.731 578.011 135.104C577.659 140.708 577.937 146.334 578.839 151.874L579.445 151.333Z" fill="white" fill-opacity="0.4"/>
<path d="M479.498 25.5366L481.612 26.1347L483.66 20.2964C484.093 18.9797 484.381 17.6187 484.519 16.2383C484.789 13.0547 484.379 9.84973 483.316 6.84026L483.095 6.09933C482.197 2.94797 480.823 -0.0445965 479.021 -2.77281C485.816 2.29223 491.568 8.64695 495.954 15.9356C497.054 17.8807 498.006 19.9069 498.802 21.9969L499.763 24.1422L501.746 23.2409L500.823 21.1178C499.968 18.9468 498.964 16.8392 497.817 14.8102C492.007 5.17525 483.953 -2.87782 474.355 -8.64676L467.08 -12.9767L472.973 -6.88006C476.719 -3.07608 479.481 1.60127 481.013 6.73886L481.122 7.41318C482.085 10.1447 482.463 13.0517 482.23 15.9417C482.087 17.163 481.823 18.3666 481.441 19.5341L479.498 25.5366Z" fill="white" fill-opacity="0.4"/>
<path d="M481.53 25.0706L481.983 24.9844C487.642 23.5882 493.454 22.9185 499.279 22.9914C499.737 22.9405 500.199 22.9267 500.66 22.9502L501.714 22.8666C504.076 22.9525 506.164 23.0782 507.956 23.2812C522.109 25.0702 535.521 30.6844 546.778 39.5318C549.852 42.0546 552.696 44.8512 555.274 47.888L558.31 51.472L554.011 49.6237C543.314 44.7893 531.504 43.0313 519.881 44.5434C513.535 45.6943 507.316 47.4683 501.311 49.8403C494.899 52.2179 490.269 53.7783 487.77 52.2906C487.406 52.089 487.087 51.8131 486.835 51.4804C485.604 49.8849 486.183 47.9446 486.804 45.674C487.849 42.7762 488.077 39.6417 487.46 36.621C486.736 33.7025 485.224 31.0446 483.091 28.9441L481.34 27.2928C480.646 26.8125 480.013 26.2482 479.455 25.6126C480.114 25.3215 480.815 25.1385 481.53 25.0706ZM484.601 27.3039C487.006 29.6864 488.733 32.6782 489.601 35.966C490.233 39.334 489.942 42.8126 488.76 46.0257C488.159 48.0037 487.864 49.1989 488.382 49.8624C489.597 51.398 494.87 49.5098 500.424 47.4843C506.62 45.1621 513.023 43.4471 519.544 42.363C529.979 40.9178 540.607 42.1289 550.461 45.8864C548.859 44.2377 547.163 42.6858 545.381 41.2386C534.425 32.6709 521.379 27.2574 507.625 25.5721C505.289 25.2941 502.94 25.1503 500.588 25.1414C495.031 25.0334 489.479 25.5615 484.039 26.7158L484.601 27.3039Z" fill="white" fill-opacity="0.4"/>
<path d="M479.679 149.498L478.36 147.725L473.221 151.103C472.085 151.883 471.037 152.787 470.097 153.798C467.967 156.161 466.364 158.958 465.397 162L465.127 162.724C463.944 165.778 463.234 168.998 463.023 172.27C460.675 164.076 459.932 155.499 460.834 147.018C461.132 144.798 461.595 142.605 462.22 140.456L462.749 138.163L460.631 137.661L460.087 139.913C459.459 142.162 458.988 144.452 458.678 146.768C457.494 157.986 459.044 169.326 463.194 179.8L466.365 187.705L465.354 179.245C464.668 173.925 465.29 168.515 467.165 163.495L467.484 162.892C468.363 160.132 469.812 157.592 471.736 155.44C472.584 154.557 473.518 153.764 474.524 153.071L479.679 149.498Z" fill="white" fill-opacity="0.4"/>
<path d="M477.784 148.62L477.372 148.41C472.038 146.044 467.021 143.008 462.439 139.373C462.044 139.132 461.669 138.859 461.318 138.558L460.43 137.977C458.606 136.458 457.024 135.077 455.723 133.815C445.562 123.705 438.289 111.012 434.674 97.0741C433.751 93.1835 433.176 89.217 432.956 85.2224L432.702 80.5122L435.004 84.62C440.589 95.0267 448.909 103.674 459.048 109.61C464.779 112.592 470.786 115.002 476.981 116.805C483.504 118.855 488.119 120.458 489.208 123.174C489.376 123.558 489.463 123.973 489.463 124.392C489.48 126.414 487.853 127.6 485.994 129.022C483.42 130.68 481.353 133.03 480.026 135.807C478.844 138.569 478.446 141.608 478.875 144.586L479.272 146.972C479.534 147.779 479.697 148.616 479.758 149.464C479.059 149.29 478.393 149.005 477.784 148.62ZM476.69 144.961C476.213 141.593 476.642 138.157 477.931 135.013C479.456 131.95 481.78 129.367 484.652 127.541C486.32 126.339 487.273 125.572 487.261 124.727C487.22 122.761 481.897 121.023 476.268 119.221C469.95 117.261 463.834 114.691 458.003 111.548C448.848 106.288 441.138 98.8014 435.574 89.7674C435.854 92.0598 436.267 94.3336 436.811 96.5769C440.355 110.107 447.457 122.416 457.365 132.199C459.052 133.854 460.831 135.411 462.693 136.862C467.041 140.36 471.767 143.35 476.782 145.773L476.69 144.961Z" fill="white" fill-opacity="0.4"/>
<path d="M88.3037 108.321L86.9849 106.548L81.8456 109.927C80.7095 110.706 79.6618 111.61 78.7216 112.622C76.5918 114.984 74.9891 117.781 74.0222 120.823L73.752 121.547C72.5689 124.601 71.8592 127.821 71.648 131.094C69.3005 122.9 68.5571 114.322 69.4594 105.841C69.757 103.622 70.2202 101.428 70.8452 99.2792L71.3736 96.9861L69.2564 96.4841L68.7117 98.7367C68.0841 100.985 67.6135 103.276 67.3032 105.591C66.1187 116.809 67.6689 128.149 71.8186 138.623L74.9904 146.528L73.9793 138.069C73.2935 132.748 73.9154 127.338 75.79 122.318L76.1089 121.715C76.988 118.955 78.4375 116.415 80.3614 114.263C81.2092 113.381 82.1432 112.587 83.1492 111.895L88.3037 108.321Z" fill="white" fill-opacity="0.4"/>
<path d="M86.4085 107.443L85.9975 107.234C80.6633 104.867 75.6459 101.831 71.064 98.1964C70.6693 97.9552 70.2943 97.6826 69.9425 97.3811L69.0554 96.8003C67.2311 95.2816 65.6488 93.8998 64.3484 92.6386C54.1866 82.5282 46.9145 69.8348 43.2991 55.8974C42.3763 52.0067 41.8013 48.0402 41.5811 44.0456L41.3267 39.3354L43.629 43.4432C49.2138 53.8499 57.5341 62.4973 67.673 68.4328C73.4044 71.4154 79.4105 73.8254 85.6057 75.6286C92.1285 77.6781 96.7435 79.2815 97.8333 81.9977C98.001 82.3812 98.0877 82.7957 98.0881 83.215C98.1052 85.2375 96.4781 86.4229 94.6189 87.8448C92.0448 89.5036 89.9783 91.8532 88.6506 94.6307C87.469 97.3924 87.0707 100.432 87.5001 103.409L87.8968 105.795C88.1587 106.603 88.3218 107.439 88.3825 108.287C87.6842 108.113 87.0179 107.829 86.4085 107.443ZM85.3145 103.784C84.8383 100.416 85.2672 96.9799 86.5563 93.8361C88.0808 90.7734 90.4049 88.1898 93.2774 86.3645C94.9446 85.1627 95.8981 84.3948 95.8862 83.55C95.8452 81.5844 90.522 79.8462 84.8929 78.0444C78.5753 76.0838 72.459 73.5142 66.6283 70.3709C57.4726 65.1114 49.7627 57.6246 44.199 48.5906C44.4786 50.883 44.8917 53.1568 45.4359 55.4002C48.9798 68.9302 56.0821 81.2394 65.9896 91.0227C67.677 92.6775 69.456 94.2341 71.318 95.6852C75.6661 99.1833 80.3924 102.173 85.4066 104.596L85.3145 103.784Z" fill="white" fill-opacity="0.4"/>
<path d="M339.144 41.8056L341.294 41.3569L340.461 35.2203C340.247 33.8497 339.885 32.507 339.38 31.2166C338.173 28.263 336.353 25.6058 334.041 23.4247L333.508 22.869C331.278 20.4855 328.698 18.4637 325.858 16.8749C334.196 18.225 342.193 21.2044 349.402 25.6464C351.262 26.865 353.029 28.2238 354.686 29.7113L356.514 31.1722L357.867 29.452L356.082 27.9935C354.336 26.461 352.486 25.054 350.546 23.783C341.007 17.916 330.192 14.4953 319.044 13.8193L310.612 13.3453L318.618 16.0297C323.675 17.6727 328.253 20.5482 331.949 24.4023L332.352 24.9508C334.449 26.9312 336.105 29.339 337.211 32.0147C337.639 33.1657 337.952 34.3575 338.143 35.5719L339.144 41.8056Z" fill="white" fill-opacity="0.4"/>
<path d="M340.738 40.4501L341.101 40.1638C345.495 36.2995 350.354 33.0105 355.562 30.3745C355.947 30.1167 356.351 29.8904 356.771 29.6976L357.669 29.1348C359.807 28.1159 361.719 27.2596 363.403 26.6094C376.79 21.6376 391.257 20.4076 405.279 23.0492C409.156 23.8655 412.953 25.032 416.623 26.5347L420.949 28.3113L416.289 28.6627C404.589 29.3265 393.298 33.2398 383.658 39.9715C378.543 43.9359 373.824 48.3954 369.567 53.2865C364.949 58.3719 361.545 61.9045 358.648 61.7416C358.233 61.7312 357.825 61.6337 357.45 61.4552C355.631 60.6081 355.264 58.616 354.784 56.3108C354.397 53.2514 353.174 50.3612 351.254 47.9634C349.285 45.7059 346.733 44.0456 343.885 43.168L341.579 42.5126C340.744 42.4076 339.925 42.1997 339.141 41.8937C339.594 41.3296 340.133 40.8423 340.738 40.4501ZM344.48 41.011C347.7 42.0128 350.593 43.8702 352.858 46.3888C354.95 49.088 356.272 52.3135 356.682 55.7165C357.046 57.7523 357.327 58.951 358.089 59.3005C359.866 60.1014 363.693 55.9793 367.707 51.6048C372.158 46.669 377.067 42.1769 382.369 38.1904C390.983 32.0687 400.975 28.2179 411.437 26.9879C409.265 26.2656 407.053 25.6731 404.813 25.2135C391.186 22.6804 377.136 23.9191 364.15 28.7982C361.948 29.634 359.796 30.5954 357.702 31.6777C352.716 34.1583 348.023 37.2014 343.714 40.7488L344.48 41.011Z" fill="white" fill-opacity="0.4"/>
<path d="M197.041 115.623L197.769 113.531L192.134 111.088C190.861 110.567 189.535 110.188 188.18 109.96C185.053 109.482 181.86 109.688 178.818 110.565L178.072 110.74C174.901 111.442 171.856 112.633 169.044 114.272C174.487 107.751 181.137 102.364 188.621 98.4135C190.614 97.4313 192.677 96.6027 194.793 95.9348L196.975 95.1056L196.212 93.0481L194.055 93.8411C191.855 94.5623 189.708 95.4384 187.63 96.4631C177.736 101.696 169.259 109.294 162.939 118.596L158.191 125.65L164.595 120.103C168.595 116.573 173.395 114.092 178.569 112.88L179.242 112.813C182.003 112.02 184.899 111.827 187.739 112.249C188.936 112.471 190.108 112.815 191.237 113.276L197.041 115.623Z" fill="white" fill-opacity="0.4"/>
<path d="M196.712 113.544L196.656 113.083C195.643 107.287 195.357 101.386 195.806 95.5186C195.785 95.0531 195.802 94.5866 195.855 94.1237L195.84 93.0559C196.078 90.6801 196.337 88.5835 196.654 86.7908C199.337 72.64 205.751 59.483 215.219 48.7076C217.91 45.7722 220.857 43.0869 224.024 40.6842L227.76 37.8554L225.656 42.0703C220.189 52.5402 217.688 64.3315 218.43 76.1452C219.156 82.6164 220.506 89.0005 222.461 95.2066C224.395 101.825 225.637 106.592 224.006 109.016C223.783 109.37 223.49 109.673 223.145 109.906C221.489 111.043 219.61 110.334 217.407 109.562C214.612 108.32 211.53 107.888 208.506 108.315C205.576 108.855 202.852 110.208 200.639 112.222L198.895 113.88C198.375 114.548 197.777 115.15 197.113 115.671C196.868 114.988 196.733 114.27 196.712 113.544ZM199.117 110.594C201.626 108.324 204.693 106.776 207.997 106.114C211.365 105.694 214.783 106.213 217.881 107.613C219.796 108.346 220.957 108.721 221.646 108.242C223.242 107.116 221.718 101.679 220.076 95.949C218.183 89.5527 216.903 82.9873 216.254 76.3435C215.501 65.7311 217.385 55.097 221.735 45.407C220.002 46.9146 218.36 48.524 216.815 50.2268C207.642 60.716 201.45 73.5169 198.895 87.2725C198.47 89.6089 198.176 91.9678 198.015 94.3378C197.548 99.9331 197.711 105.564 198.499 111.122L199.117 110.594Z" fill="white" fill-opacity="0.4"/>
<path d="M1091.57 41.6692L1093.49 40.5982L1090.9 34.9851C1090.29 33.7397 1089.56 32.5654 1088.7 31.4834C1086.68 29.0227 1084.16 27.0284 1081.31 25.6356L1080.64 25.2641C1077.81 23.6535 1074.76 22.4932 1071.58 21.8241C1079.94 20.6224 1088.45 21.0788 1096.64 23.1679C1098.77 23.776 1100.86 24.5462 1102.88 25.4719L1105.05 26.3212L1105.84 24.2738L1103.71 23.4139C1101.59 22.4716 1099.41 21.6804 1097.18 21.0462C1086.35 18.2921 1075.02 18.2562 1064.17 20.9415L1055.98 23.0081L1064.42 23.1802C1069.73 23.2386 1074.94 24.6174 1079.6 27.1947L1080.15 27.598C1082.73 28.8634 1085.02 30.6686 1086.86 32.894C1087.6 33.8654 1088.25 34.9106 1088.79 36.0137L1091.57 41.6692Z" fill="white" fill-opacity="0.4"/>
<path d="M1092.7 39.8976L1092.96 39.5157C1096.02 34.5114 1099.7 29.9177 1103.91 25.8433C1104.2 25.4822 1104.52 25.1453 1104.86 24.8357L1105.56 24.0295C1107.3 22.4174 1108.87 21.028 1110.29 19.9038C1121.63 11.1543 1135.08 5.65632 1149.25 3.98999C1153.2 3.6112 1157.16 3.591 1161.11 3.92963L1165.76 4.33408L1161.41 6.0622C1150.43 10.1924 1140.79 17.3046 1133.56 26.6154C1129.83 31.9308 1126.63 37.601 1123.99 43.5453C1121.07 49.7828 1118.85 54.1745 1116.04 54.8845C1115.64 54.9986 1115.22 55.0274 1114.81 54.969C1112.83 54.7032 1111.89 52.91 1110.76 50.8515C1109.49 48.0447 1107.48 45.6491 1104.94 43.9325C1102.4 42.3643 1099.48 41.5407 1096.5 41.5537L1094.1 41.6167C1093.27 41.7657 1092.43 41.8118 1091.59 41.7539C1091.86 41.0798 1092.23 40.4531 1092.7 39.8976ZM1096.43 39.3151C1099.8 39.3101 1103.11 40.2198 1106.01 41.9489C1108.8 43.9022 1111.01 46.5882 1112.4 49.7167C1113.34 51.5524 1113.96 52.6135 1114.79 52.7198C1116.72 52.9538 1119.17 47.8726 1121.72 42.4943C1124.53 36.4497 1127.9 30.6915 1131.8 25.2994C1138.24 16.8775 1146.66 10.2133 1156.29 5.91224C1154 5.87123 1151.72 5.96624 1149.44 6.19679C1135.68 7.84865 1122.62 13.2304 1111.65 21.7714C1109.79 23.2277 1108.01 24.7893 1106.33 26.4487C1102.29 30.3083 1098.7 34.6175 1095.63 39.2937L1096.43 39.3151Z" fill="white" fill-opacity="0.4"/>
<path d="M957.601 78.8603L959.115 77.2549L954.972 72.6893C954.023 71.6854 952.969 70.7901 951.826 70.0195C949.17 68.2856 946.175 67.1484 943.045 66.685L942.294 66.5348C939.117 65.8579 935.856 65.6801 932.626 66.0074C940.242 62.3215 948.495 60.171 956.925 59.6761C959.142 59.6078 961.36 59.7088 963.561 59.9783L965.887 60.1279L966.029 57.9358L963.74 57.7633C961.441 57.5076 959.127 57.4151 956.815 57.4865C945.666 58.1501 934.848 61.5587 925.302 67.415L918.104 71.8748L926.198 69.4768C931.281 67.9189 936.666 67.6494 941.876 68.6921L942.517 68.9109C945.357 69.3331 948.076 70.3599 950.493 71.9232C951.494 72.623 952.423 73.4232 953.264 74.3116L957.601 78.8603Z" fill="white" fill-opacity="0.4"/>
<path d="M958.148 76.829L958.284 76.385C959.718 70.6811 961.859 65.1826 964.655 60.0197C964.825 59.5868 965.03 59.1683 965.266 58.7683L965.688 57.7888C966.871 55.7215 967.96 53.9178 968.978 52.4148C977.18 40.6276 988.38 31.2952 1001.4 25.402C1005.04 23.843 1008.82 22.6181 1012.69 21.7422L1017.24 20.7144L1013.61 23.6836C1004.37 30.9589 997.291 40.6706 993.161 51.7488C991.191 57.9499 989.825 64.3305 989.082 70.7998C988.153 77.6361 987.346 82.4981 984.872 84.0304C984.526 84.2605 984.135 84.4151 983.726 84.4843C981.753 84.8339 980.329 83.4075 978.634 81.7887C976.592 79.4964 973.958 77.8235 971.027 76.9571C968.136 76.2337 965.103 76.3363 962.266 77.2535L960.001 78.0411C959.256 78.4348 958.466 78.7349 957.648 78.9346C957.703 78.2103 957.871 77.4995 958.148 76.829ZM961.54 75.1375C964.751 74.1094 968.177 73.972 971.459 74.7397C974.7 75.7553 977.605 77.6464 979.86 80.2086C981.307 81.6723 982.214 82.4961 983.037 82.3455C984.949 81.9815 985.772 76.3917 986.606 70.4866C987.482 63.8695 988.986 57.3528 991.097 51.0264C994.728 41.0391 1000.77 32.1263 1008.68 25.0977C1006.49 25.7531 1004.33 26.5384 1002.23 27.4494C989.603 33.2045 978.75 42.3044 970.826 53.7845C969.487 55.7378 968.259 57.7662 967.149 59.8601C964.447 64.7675 962.305 69.9682 960.763 75.3628L961.54 75.1375Z" fill="white" fill-opacity="0.4"/>
<path d="M1144.48 133.9L1145.99 132.295L1141.85 127.729C1140.9 126.725 1139.84 125.83 1138.7 125.06C1136.04 123.326 1133.05 122.188 1129.92 121.725L1129.17 121.575C1125.99 120.898 1122.73 120.72 1119.5 121.047C1127.12 117.362 1135.37 115.211 1143.8 114.716C1146.02 114.648 1148.23 114.749 1150.44 115.018L1152.76 115.168L1152.9 112.976L1150.61 112.803C1148.32 112.548 1146 112.455 1143.69 112.527C1132.54 113.19 1121.72 116.599 1112.18 122.455L1104.98 126.915L1113.07 124.517C1118.16 122.959 1123.54 122.689 1128.75 123.732L1129.39 123.951C1132.23 124.373 1134.95 125.4 1137.37 126.963C1138.37 127.663 1139.3 128.463 1140.14 129.352L1144.48 133.9Z" fill="white" fill-opacity="0.4"/>
<path d="M1145.02 131.869L1145.16 131.425C1146.59 125.721 1148.73 120.223 1151.53 115.06C1151.7 114.627 1151.9 114.208 1152.14 113.808L1152.56 112.829C1153.75 110.762 1154.84 108.958 1155.85 107.455C1164.06 95.6677 1175.26 86.3353 1188.27 80.4421C1191.92 78.883 1195.7 77.6581 1199.56 76.7822L1204.12 75.7545L1200.49 78.7237C1191.24 85.999 1184.17 95.7107 1180.04 106.789C1178.07 112.99 1176.7 119.371 1175.96 125.84C1175.03 132.676 1174.22 137.538 1171.75 139.07C1171.4 139.301 1171.01 139.455 1170.6 139.524C1168.63 139.874 1167.2 138.448 1165.51 136.829C1163.47 134.536 1160.83 132.864 1157.9 131.997C1155.01 131.274 1151.98 131.376 1149.14 132.294L1146.88 133.081C1146.13 133.475 1145.34 133.775 1144.52 133.975C1144.58 133.25 1144.75 132.54 1145.02 131.869ZM1148.42 130.178C1151.63 129.149 1155.05 129.012 1158.33 129.78C1161.58 130.795 1164.48 132.686 1166.73 135.249C1168.18 136.712 1169.09 137.536 1169.91 137.386C1171.82 137.022 1172.65 131.432 1173.48 125.527C1174.36 118.91 1175.86 112.393 1177.97 106.066C1181.6 96.0791 1187.65 87.1663 1195.55 80.1377C1193.36 80.7931 1191.21 81.5784 1189.11 82.4895C1176.48 88.2445 1165.63 97.3445 1157.7 108.825C1156.36 110.778 1155.13 112.806 1154.02 114.9C1151.32 119.808 1149.18 125.008 1147.64 130.403L1148.42 130.178Z" fill="white" fill-opacity="0.4"/>
<path d="M1022.73 143.998L1023.07 141.807L1017.1 140.43C1015.75 140.149 1014.38 140.017 1013.01 140.039C1009.85 140.138 1006.74 140.922 1003.91 142.338L1003.2 142.646C1000.21 143.912 997.425 145.638 994.952 147.762C999.144 140.357 1004.72 133.849 1011.38 128.601C1013.17 127.273 1015.05 126.082 1017.01 125.04L1019.01 123.828L1017.89 121.943L1015.91 123.115C1013.88 124.225 1011.92 125.477 1010.06 126.863C1001.26 133.81 994.276 142.827 989.718 153.126L986.305 160.928L991.616 154.307C994.921 150.107 999.2 146.794 1004.07 144.66L1004.72 144.472C1007.3 143.189 1010.11 142.473 1012.98 142.371C1014.2 142.372 1015.41 142.497 1016.6 142.745L1022.73 143.998Z" fill="white" fill-opacity="0.4"/>
<path d="M1022.04 142.013L1021.9 141.569C1019.87 136.053 1018.54 130.3 1017.93 124.447C1017.83 123.993 1017.76 123.531 1017.73 123.066L1017.53 122.018C1017.34 119.638 1017.22 117.529 1017.21 115.708C1017.33 101.3 1021.29 87.1913 1028.68 74.8697C1030.81 71.4927 1033.23 68.3153 1035.91 65.3758L1039.08 61.9134L1037.77 66.4421C1034.25 77.7355 1033.9 89.789 1036.73 101.275C1038.6 107.508 1041.07 113.542 1044.1 119.291C1047.18 125.449 1049.25 129.913 1048.08 132.594C1047.92 132.982 1047.69 133.333 1047.39 133.625C1045.96 135.045 1043.99 134.69 1041.68 134.331C1038.71 133.618 1035.6 133.754 1032.71 134.723C1029.92 135.788 1027.48 137.614 1025.67 139.997L1024.24 141.946C1023.85 142.698 1023.37 143.398 1022.81 144.032C1022.45 143.405 1022.19 142.723 1022.04 142.013ZM1023.88 138.673C1025.94 135.984 1028.68 133.904 1031.81 132.651C1035.05 131.626 1038.51 131.514 1041.8 132.327C1043.82 132.7 1045.03 132.858 1045.62 132.261C1046.99 130.864 1044.52 125.792 1041.88 120.455C1038.88 114.508 1036.45 108.283 1034.63 101.865C1032 91.5635 1031.95 80.7605 1034.5 70.4377C1033.07 72.2358 1031.74 74.1178 1030.52 76.0737C1023.37 88.0601 1019.56 101.778 1019.5 115.774C1019.5 118.149 1019.63 120.523 1019.89 122.884C1020.43 128.472 1021.6 133.981 1023.36 139.305L1023.88 138.673Z" fill="white" fill-opacity="0.4"/>
<path d="M132.87 205.852L135.065 205.885L135.572 199.713C135.658 198.328 135.593 196.938 135.378 195.567C134.835 192.42 133.629 189.426 131.841 186.79L131.44 186.131C129.776 183.315 127.692 180.775 125.262 178.601C133.11 181.748 140.276 186.411 146.358 192.329C147.912 193.926 149.344 195.64 150.642 197.456L152.112 199.283L153.802 197.901L152.374 196.085C150.999 194.206 149.496 192.427 147.875 190.761C139.825 182.941 130.003 177.229 119.267 174.124L111.139 171.811L118.376 176.188C122.959 178.901 126.81 182.712 129.589 187.285L129.865 187.909C131.485 190.302 132.584 193.016 133.089 195.87C133.259 197.088 133.308 198.32 133.233 199.547L132.87 205.852Z" fill="white" fill-opacity="0.4"/>
<path d="M134.716 204.877L135.132 204.678C140.252 201.869 145.702 199.725 151.353 198.295C151.783 198.127 152.226 197.995 152.678 197.899L153.676 197.547C155.982 197.021 158.032 196.605 159.816 196.339C173.952 194.423 188.339 196.396 201.458 202.051C205.067 203.699 208.522 205.67 211.782 207.942L215.623 210.626L210.998 209.946C199.435 208.027 187.571 209.37 176.715 213.826C170.87 216.574 165.304 219.892 160.097 223.732C154.496 227.683 150.414 230.384 147.621 229.59C147.218 229.489 146.841 229.304 146.513 229.047C144.92 227.822 144.99 225.796 145.017 223.441C145.296 220.37 144.725 217.28 143.365 214.518C141.929 211.883 139.795 209.702 137.203 208.221L135.093 207.075C134.301 206.789 133.546 206.407 132.846 205.936C133.41 205.485 134.041 205.127 134.716 204.877ZM138.249 206.246C141.176 207.93 143.601 210.378 145.27 213.333C146.732 216.427 147.329 219.866 146.997 223.277C146.915 225.344 146.932 226.576 147.6 227.084C149.163 228.256 153.785 225.072 158.644 221.683C164.049 217.841 169.807 214.533 175.839 211.805C185.564 207.719 196.145 206.152 206.622 207.247C204.658 206.065 202.626 205.002 200.537 204.062C187.781 198.6 173.799 196.726 160.074 198.64C157.746 198.973 155.438 199.439 153.162 200.036C147.76 201.363 142.526 203.304 137.557 205.822L138.249 206.246Z" fill="white" fill-opacity="0.4"/>
<path d="M738.872 179.35L738.025 181.396L743.509 184.166C744.749 184.762 746.051 185.218 747.39 185.526C750.485 186.188 753.684 186.17 756.771 185.475L757.526 185.344C760.733 184.831 763.842 183.821 766.743 182.351C760.932 188.54 753.982 193.525 746.282 197.027C744.236 197.89 742.129 198.595 739.977 199.137L737.752 199.836L738.394 201.935L740.593 201.271C742.831 200.681 745.025 199.933 747.159 199.032C757.339 194.392 766.24 187.307 773.087 178.395L778.235 171.633L771.522 176.792C767.324 180.08 762.389 182.274 757.154 183.178L756.478 183.205C753.676 183.835 750.774 183.856 747.963 183.267C746.781 182.975 745.631 182.562 744.53 182.035L738.872 179.35Z" fill="white" fill-opacity="0.4"/>
<path d="M739.081 181.445L739.11 181.909C739.786 187.754 739.73 193.662 738.942 199.493C738.936 199.959 738.893 200.424 738.813 200.883L738.766 201.95C738.391 204.308 738.011 206.385 737.591 208.156C734.095 222.125 726.931 234.881 716.855 245.079C713.999 247.85 710.902 250.357 707.601 252.569L703.707 255.172L706.051 251.089C712.116 240.959 715.294 229.336 715.237 217.498C714.886 210.995 713.907 204.543 712.315 198.232C710.767 191.511 709.803 186.678 711.572 184.355C711.814 184.015 712.125 183.73 712.483 183.517C714.201 182.48 716.036 183.298 718.191 184.2C720.909 185.604 723.961 186.217 727.004 185.97C729.961 185.603 732.758 184.413 735.083 182.534L736.921 180.981C737.478 180.345 738.11 179.78 738.803 179.298C739.008 179.994 739.102 180.719 739.081 181.445ZM736.509 184.249C733.873 186.367 730.722 187.73 727.385 188.197C723.998 188.417 720.616 187.698 717.605 186.117C715.736 185.272 714.598 184.829 713.882 185.267C712.224 186.296 713.431 191.815 714.739 197.631C716.259 204.128 717.157 210.758 717.42 217.429C717.558 228.068 715.062 238.572 710.159 247.989C711.976 246.586 713.709 245.077 715.35 243.468C725.114 233.538 732.035 221.124 735.381 207.543C735.941 205.236 736.371 202.898 736.669 200.542C737.458 194.984 737.622 189.353 737.156 183.758L736.509 184.249Z" fill="white" fill-opacity="0.4"/>
<path d="M839.289 223.242L841.413 222.681L840.266 216.596C839.982 215.239 839.551 213.917 838.981 212.655C837.624 209.768 835.669 207.21 833.249 205.153L832.687 204.626C830.338 202.363 827.657 200.479 824.74 199.041C833.136 199.952 841.275 202.508 848.703 206.566C850.623 207.686 852.457 208.95 854.189 210.349L856.089 211.712L857.352 209.923L855.495 208.56C853.672 207.121 851.753 205.813 849.749 204.645C839.922 199.287 828.945 196.438 817.777 196.347L809.333 196.316L817.466 198.577C822.601 199.953 827.321 202.584 831.209 206.239L831.64 206.766C833.836 208.634 835.614 210.951 836.856 213.565C837.343 214.692 837.716 215.866 837.969 217.069L839.289 223.242Z" fill="white" fill-opacity="0.4"/>
<path d="M840.811 221.804L841.159 221.499C845.348 217.41 850.031 213.87 855.097 210.965C855.468 210.687 855.86 210.44 856.269 210.226L857.138 209.616C859.22 208.487 861.086 207.531 862.734 206.794C875.848 201.126 890.232 199.139 904.37 201.042C908.284 201.654 912.136 202.62 915.879 203.928L920.29 205.475L915.655 206.071C904.004 207.347 892.929 211.847 883.649 219.075C878.744 223.303 874.26 228.004 870.26 233.112C865.911 238.432 862.693 242.139 859.791 242.128C859.376 242.139 858.964 242.063 858.58 241.905C856.72 241.154 856.251 239.184 855.653 236.907C855.109 233.872 853.74 231.05 851.699 228.756C849.616 226.605 846.983 225.081 844.093 224.354L841.756 223.82C840.918 223.759 840.089 223.594 839.29 223.33C839.713 222.743 840.227 222.228 840.811 221.804ZM844.577 222.168C847.844 223 850.829 224.703 853.22 227.099C855.448 229.685 856.934 232.837 857.518 236.214C857.987 238.228 858.329 239.41 859.107 239.719C860.923 240.426 864.533 236.109 868.317 231.53C872.508 226.367 877.18 221.624 882.269 217.364C890.558 210.799 900.338 206.43 910.723 204.653C908.517 204.045 906.277 203.569 904.016 203.228C890.278 201.413 876.31 203.387 863.592 208.94C861.437 209.89 859.337 210.963 857.302 212.154C852.449 214.893 847.919 218.178 843.799 221.947L844.577 222.168Z" fill="white" fill-opacity="0.4"/>
<path d="M489.592 216.715L491.706 217.313L493.754 211.475C494.187 210.158 494.475 208.797 494.613 207.417C494.883 204.233 494.473 201.028 493.41 198.019L493.188 197.278C492.29 194.127 490.916 191.134 489.115 188.406C495.91 193.471 501.661 199.826 506.048 207.114C507.147 209.059 508.099 211.086 508.896 213.176L509.856 215.321L511.84 214.42L510.917 212.296C510.062 210.126 509.057 208.018 507.911 205.989C502.101 196.354 494.046 188.301 484.449 182.532L477.173 178.202L483.067 184.299C486.813 188.103 489.574 192.78 491.107 197.918L491.216 198.592C492.179 201.323 492.556 204.23 492.323 207.12C492.181 208.342 491.917 209.545 491.535 210.713L489.592 216.715Z" fill="white" fill-opacity="0.4"/>
<path d="M491.624 216.249L492.077 216.163C497.736 214.767 503.547 214.097 509.373 214.17C509.831 214.119 510.293 214.105 510.754 214.129L511.808 214.045C514.17 214.131 516.258 214.257 518.05 214.46C532.202 216.249 545.615 221.863 556.872 230.711C559.946 233.233 562.789 236.03 565.368 239.067L568.404 242.651L564.104 240.802C553.408 235.968 541.597 234.21 529.975 235.722C523.629 236.873 517.41 238.647 511.405 241.019C504.993 243.397 500.363 244.957 497.863 243.469C497.499 243.268 497.181 242.992 496.929 242.659C495.698 241.064 496.277 239.123 496.897 236.853C497.943 233.955 498.17 230.82 497.553 227.8C496.83 224.881 495.317 222.223 493.185 220.123L491.434 218.472C490.74 217.991 490.107 217.427 489.549 216.791C490.208 216.5 490.908 216.317 491.624 216.249ZM494.694 218.483C497.099 220.865 498.826 223.857 499.695 227.145C500.327 230.513 500.036 233.991 498.853 237.204C498.253 239.182 497.958 240.378 498.475 241.041C499.691 242.577 504.964 240.689 510.518 238.663C516.714 236.341 523.117 234.626 529.638 233.542C540.073 232.097 550.7 233.308 560.554 237.065C558.953 235.416 557.257 233.865 555.475 232.417C544.519 223.85 531.473 218.436 517.719 216.751C515.383 216.473 513.034 216.329 510.682 216.32C505.124 216.212 499.573 216.74 494.133 217.895L494.694 218.483Z" fill="white" fill-opacity="0.4"/>
<path d="M78.2139 217.951L76.8951 216.178L71.7558 219.557C70.6196 220.336 69.572 221.24 68.6318 222.252C66.5019 224.614 64.8993 227.411 63.9323 230.453L63.6622 231.177C62.4791 234.231 61.7694 237.451 61.5581 240.723C59.2106 232.53 58.4672 223.952 59.3696 215.471C59.6672 213.251 60.1304 211.058 60.7553 208.909L61.2837 206.616L59.1666 206.114L58.6219 208.367C57.9943 210.615 57.5236 212.906 57.2134 215.221C56.0289 226.439 57.5791 237.779 61.7288 248.253L64.9006 256.158L63.8894 247.699C63.2036 242.378 63.8255 236.968 65.7001 231.948L66.0191 231.345C66.8981 228.585 68.3476 226.045 70.2716 223.893C71.1194 223.011 72.0534 222.217 73.0593 221.524L78.2139 217.951Z" fill="white" fill-opacity="0.4"/>
<path d="M76.3187 217.073L75.9076 216.864C70.5735 214.498 65.556 211.461 60.9741 207.827C60.5794 207.586 60.2044 207.313 59.8527 207.011L58.9655 206.431C57.1413 204.912 55.5589 203.53 54.2586 202.269C44.0968 192.159 36.8247 179.465 33.2093 165.528C32.2864 161.637 31.7114 157.671 31.4913 153.676L31.2368 148.966L33.5391 153.074C39.124 163.48 47.4442 172.128 57.5831 178.063C63.3146 181.046 69.3207 183.456 75.5158 185.259C82.0387 187.308 86.6536 188.912 87.7434 191.628C87.9111 192.012 87.9979 192.426 87.9982 192.845C88.0154 194.868 86.3883 196.053 84.5291 197.475C81.9549 199.134 79.8884 201.484 78.5608 204.261C77.3791 207.023 76.9808 210.062 77.4102 213.039L77.807 215.426C78.0689 216.233 78.232 217.07 78.2926 217.917C77.5944 217.744 76.928 217.459 76.3187 217.073ZM75.2246 213.415C74.7485 210.046 75.1774 206.61 76.4664 203.467C77.9909 200.404 80.315 197.82 83.1875 195.995C84.8547 194.793 85.8082 194.025 85.7964 193.18C85.7553 191.215 80.4321 189.477 74.803 187.675C68.4854 185.714 62.3691 183.145 56.5385 180.001C47.3827 174.742 39.6729 167.255 34.1092 158.221C34.3888 160.513 34.8018 162.787 35.3461 165.031C38.89 178.561 45.9922 190.87 55.8998 200.653C57.5871 202.308 59.3661 203.865 61.2282 205.316C65.5762 208.814 70.3026 211.803 75.3167 214.227L75.2246 213.415Z" fill="white" fill-opacity="0.4"/>
<path d="M349.235 232.984L351.385 232.536L350.552 226.399C350.339 225.028 349.977 223.686 349.472 222.395C348.265 219.442 346.444 216.784 344.133 214.603L343.6 214.048C341.37 211.664 338.79 209.642 335.95 208.054C344.288 209.404 352.285 212.383 359.494 216.825C361.354 218.044 363.121 219.402 364.778 220.89L366.606 222.351L367.959 220.631L366.174 219.172C364.428 217.64 362.578 216.233 360.638 214.962C351.098 209.095 340.283 205.674 329.135 204.998L320.704 204.524L328.71 207.208C333.767 208.851 338.345 211.727 342.041 215.581L342.444 216.129C344.541 218.11 346.197 220.518 347.303 223.193C347.731 224.344 348.043 225.536 348.234 226.751L349.235 232.984Z" fill="white" fill-opacity="0.4"/>
<path d="M350.83 231.629L351.193 231.342C355.587 227.478 360.445 224.189 365.654 221.553C366.038 221.295 366.442 221.069 366.862 220.876L367.761 220.313C369.899 219.295 371.811 218.438 373.495 217.788C386.882 212.816 401.349 211.586 415.371 214.228C419.248 215.044 423.045 216.211 426.715 217.713L431.041 219.49L426.381 219.841C414.681 220.505 403.389 224.419 393.75 231.15C388.635 235.115 383.915 239.574 379.658 244.465C375.041 249.551 371.637 253.083 368.74 252.92C368.325 252.91 367.917 252.812 367.541 252.634C365.723 251.787 365.356 249.795 364.876 247.489C364.488 244.43 363.266 241.54 361.345 239.142C359.377 236.885 356.825 235.224 353.976 234.347L351.67 233.691C350.836 233.586 350.017 233.378 349.232 233.072C349.685 232.508 350.225 232.021 350.83 231.629ZM354.572 232.19C357.792 233.191 360.685 235.049 362.95 237.568C365.042 240.267 366.364 243.492 366.773 246.895C367.138 248.931 367.419 250.13 368.181 250.479C369.958 251.28 373.785 247.158 377.799 242.783C382.249 237.848 387.159 233.356 392.461 229.369C401.075 223.247 411.067 219.397 421.529 218.167C419.357 217.444 417.145 216.852 414.904 216.392C401.278 213.859 387.227 215.098 374.242 219.977C372.04 220.813 369.888 221.774 367.794 222.856C362.807 225.337 358.115 228.38 353.806 231.928L354.572 232.19Z" fill="white" fill-opacity="0.4"/>
<path d="M257.588 245.64L258.315 243.548L252.68 241.106C251.408 240.584 250.082 240.206 248.727 239.977C245.6 239.5 242.407 239.706 239.365 240.583L238.619 240.758C235.448 241.459 232.402 242.651 229.591 244.29C235.034 237.768 241.684 232.382 249.168 228.431C251.16 227.449 253.224 226.62 255.34 225.952L257.521 225.123L256.759 223.066L254.602 223.859C252.402 224.58 250.255 225.456 248.177 226.481C238.283 231.714 229.806 239.312 223.486 248.613L218.738 255.667L225.142 250.121C229.142 246.591 233.942 244.11 239.116 242.898L239.789 242.831C242.55 242.037 245.446 241.845 248.286 242.266C249.483 242.489 250.655 242.833 251.784 243.294L257.588 245.64Z" fill="white" fill-opacity="0.4"/>
<path d="M257.259 243.562L257.203 243.1C256.19 237.305 255.904 231.404 256.353 225.536C256.332 225.071 256.349 224.604 256.402 224.141L256.387 223.073C256.625 220.698 256.884 218.601 257.201 216.808C259.883 202.658 266.297 189.501 275.766 178.725C278.457 175.79 281.404 173.104 284.57 170.702L288.307 167.873L286.203 172.088C280.735 182.558 278.235 194.349 278.977 206.163C279.703 212.634 281.053 219.018 283.008 225.224C284.942 231.842 286.184 236.61 284.552 239.033C284.33 239.387 284.037 239.69 283.692 239.923C282.036 241.061 280.157 240.352 277.954 239.579C275.159 238.337 272.077 237.906 269.053 238.332C266.123 238.873 263.399 240.225 261.186 242.239L259.442 243.897C258.922 244.566 258.324 245.167 257.66 245.689C257.415 245.006 257.28 244.288 257.259 243.562ZM259.664 240.611C262.173 238.341 265.24 236.794 268.544 236.131C271.912 235.712 275.33 236.23 278.428 237.63C280.343 238.364 281.504 238.738 282.193 238.259C283.789 237.134 282.265 231.696 280.623 225.967C278.73 219.57 277.45 213.005 276.801 206.361C276.048 195.749 277.932 185.115 282.282 175.425C280.549 176.932 278.907 178.542 277.362 180.244C268.189 190.734 261.997 203.535 259.442 217.29C259.017 219.626 258.723 221.985 258.562 224.355C258.095 229.951 258.258 235.581 259.046 241.14L259.664 240.611Z" fill="white" fill-opacity="0.4"/>
<path d="M1101.66 232.848L1103.58 231.777L1100.99 226.164C1100.39 224.918 1099.65 223.744 1098.79 222.662C1096.77 220.201 1094.25 218.207 1091.41 216.814L1090.73 216.443C1087.91 214.832 1084.85 213.672 1081.67 213.003C1090.03 211.801 1098.54 212.258 1106.73 214.347C1108.86 214.955 1110.95 215.725 1112.97 216.651L1115.14 217.5L1115.93 215.453L1113.8 214.593C1111.68 213.65 1109.5 212.859 1107.28 212.225C1096.45 209.471 1085.11 209.435 1074.27 212.12L1066.07 214.187L1074.51 214.359C1079.82 214.417 1085.03 215.796 1089.69 218.373L1090.24 218.777C1092.82 220.042 1095.11 221.847 1096.95 224.073C1097.7 225.044 1098.34 226.089 1098.88 227.192L1101.66 232.848Z" fill="white" fill-opacity="0.4"/>
<path d="M1102.79 231.076L1103.05 230.694C1106.12 225.69 1109.79 221.096 1114 217.022C1114.29 216.661 1114.61 216.324 1114.95 216.014L1115.65 215.208C1117.39 213.596 1118.97 212.207 1120.39 211.083C1131.72 202.333 1145.18 196.835 1159.34 195.169C1163.29 194.79 1167.26 194.77 1171.2 195.108L1175.85 195.513L1171.51 197.241C1160.52 201.371 1150.88 208.483 1143.65 217.794C1139.92 223.11 1136.72 228.78 1134.08 234.724C1131.16 240.962 1128.95 245.353 1126.13 246.063C1125.73 246.177 1125.31 246.206 1124.9 246.148C1122.92 245.882 1121.98 244.089 1120.85 242.03C1119.58 239.223 1117.57 236.828 1115.03 235.111C1112.49 233.543 1109.57 232.719 1106.59 232.732L1104.19 232.795C1103.37 232.944 1102.52 232.991 1101.68 232.933C1101.95 232.258 1102.32 231.632 1102.79 231.076ZM1106.53 230.494C1109.9 230.489 1113.2 231.398 1116.1 233.128C1118.89 235.081 1121.1 237.767 1122.49 240.895C1123.43 242.731 1124.05 243.792 1124.88 243.899C1126.81 244.132 1129.26 239.051 1131.82 233.673C1134.62 227.628 1138 221.87 1141.89 216.478C1148.33 208.056 1156.75 201.392 1166.38 197.091C1164.09 197.05 1161.81 197.145 1159.53 197.376C1145.77 199.027 1132.72 204.409 1121.74 212.95C1119.88 214.406 1118.11 215.968 1116.42 217.627C1112.39 221.487 1108.8 225.796 1105.72 230.472L1106.53 230.494Z" fill="white" fill-opacity="0.4"/>
<path d="M987.874 235.38L989.389 233.775L985.245 229.209C984.297 228.205 983.242 227.31 982.1 226.54C979.443 224.806 976.448 223.668 973.319 223.205L972.567 223.055C969.391 222.378 966.13 222.2 962.9 222.527C970.515 218.842 978.769 216.691 987.199 216.196C989.415 216.128 991.633 216.229 993.834 216.498L996.16 216.648L996.302 214.456L994.013 214.283C991.714 214.028 989.4 213.935 987.089 214.006C975.94 214.67 965.121 218.079 955.575 223.935L948.377 228.395L956.472 225.997C961.555 224.439 966.939 224.169 972.15 225.212L972.791 225.431C975.631 225.853 978.349 226.88 980.767 228.443C981.768 229.143 982.696 229.943 983.538 230.832L987.874 235.38Z" fill="white" fill-opacity="0.4"/>
<path d="M988.421 233.349L988.558 232.905C989.992 227.201 992.132 221.702 994.928 216.539C995.099 216.106 995.303 215.688 995.54 215.288L995.961 214.308C997.144 212.241 998.234 210.437 999.251 208.934C1007.45 197.147 1018.65 187.815 1031.67 181.922C1035.32 180.363 1039.1 179.138 1042.96 178.262L1047.52 177.234L1043.88 180.203C1034.64 187.478 1027.56 197.19 1023.43 208.268C1021.46 214.469 1020.1 220.85 1019.36 227.319C1018.43 234.156 1017.62 239.018 1015.15 240.55C1014.8 240.78 1014.41 240.935 1014 241.004C1012.03 241.353 1010.6 239.927 1008.91 238.308C1006.87 236.016 1004.23 234.343 1001.3 233.477C998.41 232.753 995.376 232.856 992.54 233.773L990.275 234.561C989.529 234.954 988.739 235.254 987.922 235.454C987.976 234.73 988.145 234.019 988.421 233.349ZM991.814 231.657C995.025 230.629 998.451 230.492 1001.73 231.259C1004.97 232.275 1007.88 234.166 1010.13 236.728C1011.58 238.192 1012.49 239.016 1013.31 238.865C1015.22 238.501 1016.05 232.911 1016.88 227.006C1017.76 220.389 1019.26 213.872 1021.37 207.546C1025 197.559 1031.04 188.646 1038.95 181.617C1036.76 182.273 1034.61 183.058 1032.51 183.969C1019.88 189.724 1009.02 198.824 1001.1 210.304C999.761 212.257 998.533 214.286 997.422 216.38C994.721 221.287 992.578 226.488 991.036 231.882L991.814 231.657Z" fill="white" fill-opacity="0.4"/>
<path d="M308.763 90.271L307.235 91.8635L311.341 96.464C312.281 97.4759 313.328 98.3801 314.464 99.1603C317.106 100.917 320.091 102.079 323.217 102.569L323.967 102.725C327.138 103.429 330.398 103.635 333.63 103.335C325.985 106.956 317.713 109.037 309.279 109.46C307.063 109.51 304.846 109.39 302.647 109.102L300.322 108.933L300.162 111.123L302.45 111.315C304.746 111.59 307.059 111.703 309.372 111.651C320.526 111.081 331.372 107.764 340.966 101.989L348.201 97.5902L340.087 99.9196C334.991 101.435 329.604 101.658 324.403 100.572L323.764 100.348C320.927 99.9014 318.217 98.8517 315.813 97.2679C314.818 96.5597 313.896 95.7517 313.062 94.8562L308.763 90.271Z" fill="white" fill-opacity="0.4"/>
<path d="M308.2 92.2977L308.06 92.7405C306.579 98.4321 304.393 103.912 301.554 109.051C301.38 109.483 301.172 109.9 300.932 110.298L300.503 111.273C299.303 113.331 298.198 115.125 297.168 116.62C288.868 128.337 277.592 137.574 264.528 143.357C260.868 144.885 257.079 146.078 253.207 146.921L248.641 147.911L252.299 144.972C261.603 137.775 268.759 128.124 272.98 117.081C275.002 110.897 276.421 104.528 277.217 98.0651C278.203 91.2369 279.05 86.382 281.536 84.8706C281.885 84.6434 282.277 84.4921 282.687 84.4264C284.662 84.0935 286.075 85.5319 287.755 87.165C289.779 89.4744 292.399 91.1695 295.322 92.0607C298.207 92.8085 301.241 92.7315 304.086 91.8383L306.357 91.0699C307.106 90.6826 307.898 90.3892 308.717 90.1964C308.657 90.9202 308.482 91.6295 308.2 92.2977ZM304.794 93.9604C301.574 94.9613 298.148 95.0698 294.872 94.2744C291.64 93.2314 288.751 91.3158 286.517 88.7346C285.082 87.2587 284.182 86.4273 283.358 86.571C281.443 86.9188 280.574 92.5014 279.691 98.3992C278.76 105.009 277.202 111.513 275.039 117.821C271.325 127.777 265.208 136.638 257.243 143.6C259.441 142.963 261.6 142.196 263.708 141.303C276.385 135.655 287.312 126.647 295.332 115.234C296.687 113.292 297.931 111.274 299.059 109.19C301.801 104.305 303.986 99.123 305.573 93.7417L304.794 93.9604Z" fill="white" fill-opacity="0.4"/>
</svg>
