<svg width="96" height="101" viewBox="0 0 96 101" fill="none" xmlns="http://www.w3.org/2000/svg">
<mask id="path-1-inside-1_424_576" fill="white">
<path fill-rule="evenodd" clip-rule="evenodd" d="M46.8368 0.952696C70.0268 0.286975 86.8114 19.1075 93.542 39.2485C99.821 58.0381 94.0047 78.5042 76.6894 90.2852C58.5262 102.643 32.994 105.312 15.1321 92.5975C-1.25378 80.9339 -7.00246 61.4355 11.4976 39.2485C25.5166 22.4355 25.068 1.57762 46.8368 0.952696Z"/>
</mask>
<path fill-rule="evenodd" clip-rule="evenodd" d="M46.8368 0.952696C70.0268 0.286975 86.8114 19.1075 93.542 39.2485C99.821 58.0381 94.0047 78.5042 76.6894 90.2852C58.5262 102.643 32.994 105.312 15.1321 92.5975C-1.25378 80.9339 -7.00246 61.4355 11.4976 39.2485C25.5166 22.4355 25.068 1.57762 46.8368 0.952696Z" fill="#F49F0A"/>
<path d="M46.8368 0.952696L46.7507 -2.04607L46.8368 0.952696ZM93.542 39.2485L90.6967 40.1994L93.542 39.2485ZM76.6894 90.2852L78.377 92.7656L76.6894 90.2852ZM15.1321 92.5975L16.8718 90.1535L15.1321 92.5975ZM11.4976 39.2485L13.8017 41.1697L11.4976 39.2485ZM46.9229 3.95146C68.2318 3.33974 84.1757 20.6857 90.6967 40.1994L96.3873 38.2977C89.447 17.5293 71.8219 -2.76579 46.7507 -2.04607L46.9229 3.95146ZM90.6967 40.1994C96.5796 57.8037 91.1311 76.8308 75.0018 87.8049L78.377 92.7656C96.8782 80.1776 103.062 58.2725 96.3873 38.2977L90.6967 40.1994ZM75.0018 87.8049C57.5903 99.6515 33.4557 101.958 16.8718 90.1535L13.3924 95.0416C32.5322 108.665 59.4621 105.635 78.377 92.7656L75.0018 87.8049ZM16.8718 90.1535C9.17264 84.6731 4.24795 77.5595 3.20804 69.486C2.17058 61.4317 4.92266 51.8183 13.8017 41.1697L9.19347 37.3273C-0.42754 48.8657 -4.05114 60.0951 -2.7428 70.2525C-1.43691 80.3909 4.70569 88.8583 13.3924 95.0416L16.8718 90.1535ZM13.8017 41.1697C17.5039 36.7297 20.219 32.0603 22.5295 27.6525C24.9037 23.1232 26.7076 19.1781 28.845 15.5542C30.9291 12.0208 33.0953 9.23609 35.843 7.27943C38.5383 5.36 41.9986 4.09282 46.9229 3.95146L46.7507 -2.04607C40.7906 -1.87497 36.1437 -0.300567 32.3626 2.39204C28.6338 5.0474 25.9543 8.64513 23.677 12.506C21.4532 16.2763 19.3801 20.7372 17.2153 24.8669C14.9868 29.1182 12.5008 33.3608 9.19347 37.3273L13.8017 41.1697Z" fill="white" mask="url(#path-1-inside-1_424_576)"/>
<g clip-path="url(#clip0_424_576)">
<path d="M63.375 39.0901C62.5552 38.4046 61.5945 37.9079 60.5611 37.6355C59.5278 37.363 58.4471 37.3214 57.3958 37.5136L51.8221 38.5257C50.5352 38.762 49.3652 39.4241 48.5 40.4055C47.6325 39.4224 46.4591 38.7602 45.1692 38.5257L39.6042 37.5136C38.5529 37.3213 37.4723 37.3623 36.4387 37.6339C35.4051 37.9055 34.4438 38.4009 33.6229 39.0852C32.802 39.7695 32.1416 40.6258 31.6883 41.5936C31.2351 42.5614 31.0001 43.617 31 44.6857V60.4255C31.0001 62.1329 31.5993 63.7862 32.6933 65.0971C33.7873 66.408 35.3066 67.2934 36.9865 67.5991L46.1535 69.2659C47.7051 69.5479 49.2949 69.5479 50.8465 69.2659L60.0208 67.5991C61.6993 67.2919 63.217 66.4058 64.3095 65.0951C65.402 63.7843 66.0002 62.1319 66 60.4255V44.6857C66.0007 43.6174 65.7658 42.5621 65.3121 41.5949C64.8583 40.6277 64.197 39.7725 63.375 39.0901ZM47.0417 66.4557C46.9192 66.4382 46.7967 66.4178 46.6742 66.3959L37.5085 64.7305C36.5005 64.5471 35.5888 64.0157 34.9324 63.229C34.276 62.4423 33.9165 61.4501 33.9167 60.4255V44.6857C33.9167 43.5254 34.3776 42.4126 35.1981 41.5921C36.0185 40.7716 37.1313 40.3107 38.2917 40.3107C38.5558 40.3113 38.8193 40.3353 39.0792 40.3822L44.65 41.403C45.3203 41.5257 45.9264 41.8791 46.3633 42.402C46.8002 42.9249 47.0402 43.5843 47.0417 44.2657V66.4557ZM63.0833 60.4255C63.0835 61.4501 62.724 62.4423 62.0676 63.229C61.4112 64.0157 60.4995 64.5471 59.4915 64.7305L50.3258 66.3959C50.2033 66.4178 50.0808 66.4382 49.9583 66.4557V44.2657C49.9582 43.5826 50.1979 42.9212 50.6355 42.3967C51.0731 41.8722 51.6809 41.518 52.3529 41.3957L57.9252 40.3749C58.5563 40.2601 59.2048 40.2854 59.825 40.4491C60.4452 40.6128 61.0217 40.9109 61.5139 41.3222C62.0061 41.7335 62.4018 42.248 62.673 42.8293C62.9442 43.4105 63.0843 44.0443 63.0833 44.6857V60.4255Z" fill="white"/>
</g>
<defs>
<clipPath id="clip0_424_576">
<rect width="35" height="35" fill="white" transform="translate(31 35.9355)"/>
</clipPath>
</defs>
</svg>
