<svg width="96" height="100" viewBox="0 0 96 100" fill="none" xmlns="http://www.w3.org/2000/svg">
<mask id="path-1-inside-1_1059_3498" fill="white">
<path fill-rule="evenodd" clip-rule="evenodd" d="M46.8368 0.0171493C70.0268 -0.648572 86.8114 18.1719 93.542 38.313C99.821 57.1025 94.0047 77.5686 76.6894 89.3497C58.5262 101.708 32.994 104.376 15.1321 91.662C-1.25378 79.9983 -7.00246 60.5 11.4976 38.313C25.5166 21.5 25.068 0.642068 46.8368 0.0171493Z"/>
</mask>
<path fill-rule="evenodd" clip-rule="evenodd" d="M46.8368 0.0171493C70.0268 -0.648572 86.8114 18.1719 93.542 38.313C99.821 57.1025 94.0047 77.5686 76.6894 89.3497C58.5262 101.708 32.994 104.376 15.1321 91.662C-1.25378 79.9983 -7.00246 60.5 11.4976 38.313C25.5166 21.5 25.068 0.642068 46.8368 0.0171493Z" fill="#F49F0A"/>
<path d="M46.8368 0.0171493L46.7507 -2.98162L46.8368 0.0171493ZM93.542 38.313L90.6967 39.2638L93.542 38.313ZM76.6894 89.3497L78.377 91.83L78.377 91.83L76.6894 89.3497ZM15.1321 91.662L16.8718 89.2179L16.8718 89.2179L15.1321 91.662ZM11.4976 38.313L13.8017 40.2342L11.4976 38.313ZM46.9229 3.01591C68.2318 2.40419 84.1757 19.7501 90.6967 39.2638L96.3873 37.3621C89.447 16.5937 71.8219 -3.70134 46.7507 -2.98162L46.9229 3.01591ZM90.6967 39.2638C96.5796 56.8681 91.1311 75.8952 75.0018 86.8694L78.377 91.83C96.8782 79.2421 103.062 57.337 96.3873 37.3621L90.6967 39.2638ZM75.0018 86.8694C57.5903 98.7159 33.4557 101.023 16.8718 89.2179L13.3924 94.106C32.5322 107.73 59.4621 104.699 78.377 91.83L75.0018 86.8694ZM16.8718 89.2179C9.17264 83.7376 4.24795 76.6239 3.20804 68.5505C2.17058 60.4961 4.92266 50.8828 13.8017 40.2342L9.19347 36.3918C-0.42754 47.9302 -4.05114 59.1596 -2.7428 69.317C-1.43691 79.4554 4.70569 87.9228 13.3924 94.106L16.8718 89.2179ZM13.8017 40.2342C17.5039 35.7942 20.219 31.1247 22.5295 26.717C24.9037 22.1876 26.7076 18.2425 28.845 14.6187C30.9291 11.0853 33.0954 8.30054 35.843 6.34388C38.5383 4.42446 41.9986 3.15728 46.9229 3.01591L46.7507 -2.98162C40.7906 -2.81052 36.1436 -1.23611 32.3626 1.45649C28.6338 4.11186 25.9543 7.70958 23.677 11.5704C21.4532 15.3408 19.3801 19.8017 17.2153 23.9313C14.9868 28.1827 12.5008 32.4253 9.19347 36.3918L13.8017 40.2342Z" fill="white" mask="url(#path-1-inside-1_1059_3498)"/>
<g clip-path="url(#clip0_1059_3498)">
<path d="M55.792 34.9355H41.2087C39.2755 34.9379 37.4222 35.7068 36.0552 37.0738C34.6883 38.4407 33.9193 40.2941 33.917 42.2272V64.1022C33.917 65.6493 34.5316 67.133 35.6255 68.227C36.7195 69.321 38.2032 69.9355 39.7503 69.9355H55.792C57.7252 69.9332 59.5785 69.1643 60.9454 67.7973C62.3124 66.4304 63.0813 64.577 63.0837 62.6439V42.2272C63.0813 40.2941 62.3124 38.4407 60.9454 37.0738C59.5785 35.7068 57.7252 34.9379 55.792 34.9355V34.9355ZM60.167 42.2272V58.2689H42.667V37.8522H55.792C56.9523 37.8522 58.0651 38.3131 58.8856 39.1336C59.7061 39.9541 60.167 41.0669 60.167 42.2272ZM39.7503 38.103V58.2689C38.726 58.268 37.7197 58.5382 36.8337 59.052V42.2272C36.8338 41.3226 37.1143 40.4403 37.6367 39.7017C38.159 38.9631 38.8974 38.4046 39.7503 38.103V38.103ZM55.792 67.0189H39.7503C38.9768 67.0189 38.2349 66.7116 37.6879 66.1646C37.1409 65.6176 36.8337 64.8758 36.8337 64.1022C36.8337 63.3287 37.1409 62.5868 37.6879 62.0398C38.2349 61.4928 38.9768 61.1855 39.7503 61.1855H60.167V62.6439C60.167 63.8042 59.7061 64.917 58.8856 65.7375C58.0651 66.5579 56.9523 67.0189 55.792 67.0189Z" fill="white"/>
</g>
<defs>
<clipPath id="clip0_1059_3498">
<rect width="35" height="35" fill="white" transform="translate(31 34.9355)"/>
</clipPath>
</defs>
</svg>
