<svg width="96" height="101" viewBox="0 0 96 101" fill="none" xmlns="http://www.w3.org/2000/svg">
<path d="M46.8798 2.45208C69.1293 1.81336 85.4935 19.8966 92.1193 39.7239C98.2003 57.9209 92.5679 77.6675 75.8456 89.0451C58.0583 101.147 33.2248 103.635 16.002 91.3755C8.0559 85.7194 2.82674 78.2673 1.72033 69.6777C0.615151 61.0975 3.58511 51.0802 12.6496 40.2091C16.2531 35.8875 18.9109 31.3247 21.2009 26.9561C22.0239 25.3861 22.7903 23.8607 23.5329 22.3826C24.8855 19.6905 26.1593 17.1552 27.553 14.7921C29.6854 11.1769 31.98 8.18892 34.9729 6.05758C37.9397 3.94486 41.6966 2.60087 46.8798 2.45208Z" fill="#F49F0A" stroke="white" stroke-width="3"/>
<g clip-path="url(#clip0_424_552)">
<path d="M55.792 35.9355H41.2087C39.2755 35.9379 37.4222 36.7068 36.0552 38.0738C34.6883 39.4407 33.9193 41.2941 33.917 43.2272V65.1022C33.917 66.6493 34.5316 68.133 35.6255 69.227C36.7195 70.321 38.2032 70.9355 39.7503 70.9355H55.792C57.7252 70.9332 59.5785 70.1643 60.9454 68.7973C62.3124 67.4304 63.0813 65.577 63.0837 63.6439V43.2272C63.0813 41.2941 62.3124 39.4407 60.9454 38.0738C59.5785 36.7068 57.7252 35.9379 55.792 35.9355V35.9355ZM60.167 43.2272V59.2689H42.667V38.8522H55.792C56.9523 38.8522 58.0651 39.3131 58.8856 40.1336C59.7061 40.9541 60.167 42.0669 60.167 43.2272ZM39.7503 39.103V59.2689C38.726 59.268 37.7197 59.5382 36.8337 60.052V43.2272C36.8338 42.3226 37.1143 41.4403 37.6367 40.7017C38.159 39.9631 38.8974 39.4046 39.7503 39.103ZM55.792 68.0189H39.7503C38.9768 68.0189 38.2349 67.7116 37.6879 67.1646C37.1409 66.6176 36.8337 65.8758 36.8337 65.1022C36.8337 64.3287 37.1409 63.5868 37.6879 63.0398C38.2349 62.4928 38.9768 62.1855 39.7503 62.1855H60.167V63.6439C60.167 64.8042 59.7061 65.917 58.8856 66.7375C58.0651 67.5579 56.9523 68.0189 55.792 68.0189Z" fill="white"/>
</g>
<defs>
<clipPath id="clip0_424_552">
<rect width="35" height="35" fill="white" transform="translate(31 35.9355)"/>
</clipPath>
</defs>
</svg>
