<svg width="115" height="62" viewBox="0 0 115 62" fill="none" xmlns="http://www.w3.org/2000/svg">
<path d="M8.31945 40.3012C9.77978 40.3012 10.9598 40.7658 11.8596 41.6951C12.7594 42.6097 13.2093 43.893 13.2093 45.5451V52.7361H10.1117V45.9655C10.1117 44.9919 9.86828 44.247 9.3815 43.7307C8.89473 43.1997 8.23094 42.9342 7.39015 42.9342C6.5346 42.9342 5.85606 43.1997 5.35454 43.7307C4.86776 44.247 4.62437 44.9919 4.62437 45.9655V52.7361H1.52671V40.4782H4.62437V42.0049C5.0374 41.4739 5.56105 41.0608 6.19533 40.7658C6.84437 40.456 7.55241 40.3012 8.31945 40.3012ZM27.55 46.3416C27.55 46.7841 27.5205 47.1824 27.4615 47.5364H18.5004C18.5742 48.4215 18.884 49.1148 19.4297 49.6163C19.9755 50.1178 20.6467 50.3686 21.4432 50.3686C22.5938 50.3686 23.4124 49.8744 23.8992 48.8861H27.2403C26.8863 50.0662 26.2077 51.0397 25.2047 51.8068C24.2016 52.5591 22.9699 52.9352 21.5096 52.9352C20.3295 52.9352 19.2675 52.6771 18.3234 52.1608C17.3941 51.6298 16.664 50.8849 16.1329 49.9261C15.6167 48.9673 15.3585 47.8609 15.3585 46.6071C15.3585 45.3386 15.6167 44.2249 16.1329 43.2661C16.6492 42.3073 17.372 41.5697 18.3013 41.0535C19.2306 40.5372 20.3 40.279 21.5096 40.279C22.6749 40.279 23.7148 40.5298 24.6294 41.0313C25.5587 41.5329 26.2741 42.2483 26.7756 43.1776C27.2919 44.0921 27.55 45.1468 27.55 46.3416ZM24.3417 45.4566C24.327 44.66 24.0394 44.0257 23.4788 43.5537C22.9183 43.0669 22.2324 42.8236 21.4211 42.8236C20.654 42.8236 20.005 43.0596 19.474 43.5316C18.9577 43.9889 18.6406 44.6305 18.5226 45.4566H24.3417ZM34.9222 49.8818L38.0199 40.4782H41.3167L36.7808 52.7361H33.0194L28.5056 40.4782H31.8245L34.9222 49.8818ZM54.4515 46.3416C54.4515 46.7841 54.422 47.1824 54.363 47.5364H45.4019C45.4757 48.4215 45.7854 49.1148 46.3312 49.6163C46.877 50.1178 47.5481 50.3686 48.3447 50.3686C49.4952 50.3686 50.3139 49.8744 50.8007 48.8861H54.1417C53.7877 50.0662 53.1092 51.0397 52.1061 51.8068C51.1031 52.5591 49.8714 52.9352 48.4111 52.9352C47.231 52.9352 46.1689 52.6771 45.2249 52.1608C44.2956 51.6298 43.5654 50.8849 43.0344 49.9261C42.5181 48.9673 42.26 47.8609 42.26 46.6071C42.26 45.3386 42.5181 44.2249 43.0344 43.2661C43.5507 42.3073 44.2735 41.5697 45.2028 41.0535C46.1321 40.5372 47.2015 40.279 48.4111 40.279C49.5764 40.279 50.6163 40.5298 51.5309 41.0313C52.4602 41.5329 53.1756 42.2483 53.6771 43.1776C54.1934 44.0921 54.4515 45.1468 54.4515 46.3416ZM51.2432 45.4566C51.2285 44.66 50.9408 44.0257 50.3803 43.5537C49.8198 43.0669 49.1339 42.8236 48.3226 42.8236C47.5555 42.8236 46.9065 43.0596 46.3755 43.5316C45.8592 43.9889 45.542 44.6305 45.424 45.4566H51.2432ZM59.8102 42.381C60.2085 41.732 60.7247 41.2231 61.359 40.8543C62.0081 40.4856 62.7456 40.3012 63.5717 40.3012V43.5537H62.753C61.7794 43.5537 61.0419 43.7824 60.5404 44.2396C60.0536 44.6969 59.8102 45.4934 59.8102 46.6293V52.7361H56.7125V40.4782H59.8102V42.381ZM68.7558 36.3627V52.7361H65.6581V36.3627H68.7558ZM71.0197 46.5629C71.0197 45.3238 71.2631 44.2249 71.7499 43.2661C72.2514 42.3073 72.9226 41.5697 73.7634 41.0535C74.6189 40.5372 75.5703 40.279 76.6176 40.279C77.5322 40.279 78.3287 40.4634 79.0073 40.8322C79.7005 41.201 80.2537 41.6656 80.6667 42.2261V40.4782H83.7865V52.7361H80.6667V50.9439C80.2685 51.5191 79.7153 51.9985 79.0073 52.3821C78.314 52.7508 77.5101 52.9352 76.5955 52.9352C75.563 52.9352 74.6189 52.6697 73.7634 52.1387C72.9226 51.6076 72.2514 50.8627 71.7499 49.9039C71.2631 48.9304 71.0197 47.8167 71.0197 46.5629ZM80.6667 46.6071C80.6667 45.8548 80.5192 45.2132 80.2242 44.6822C79.9292 44.1364 79.5309 43.7233 79.0294 43.4431C78.5279 43.1481 77.9895 43.0006 77.4142 43.0006C76.8389 43.0006 76.3079 43.1407 75.8211 43.421C75.3343 43.7012 74.936 44.1142 74.6263 44.66C74.3313 45.1911 74.1838 45.8253 74.1838 46.5629C74.1838 47.3004 74.3313 47.9495 74.6263 48.51C74.936 49.0558 75.3343 49.4762 75.8211 49.7712C76.3226 50.0662 76.8536 50.2137 77.4142 50.2137C77.9895 50.2137 78.5279 50.0736 79.0294 49.7933C79.5309 49.4983 79.9292 49.0853 80.2242 48.5542C80.5192 48.0085 80.6667 47.3594 80.6667 46.6071ZM93.6047 40.3012C95.065 40.3012 96.2451 40.7658 97.1449 41.6951C98.0447 42.6097 98.4946 43.893 98.4946 45.5451V52.7361H95.3969V45.9655C95.3969 44.9919 95.1535 44.247 94.6667 43.7307C94.1799 43.1997 93.5162 42.9342 92.6754 42.9342C91.8198 42.9342 91.1413 43.1997 90.6398 43.7307C90.153 44.247 89.9096 44.9919 89.9096 45.9655V52.7361H86.8119V40.4782H89.9096V42.0049C90.3226 41.4739 90.8463 41.0608 91.4806 40.7658C92.1296 40.456 92.8376 40.3012 93.6047 40.3012ZM100.644 46.5629C100.644 45.3238 100.887 44.2249 101.374 43.2661C101.875 42.3073 102.554 41.5697 103.41 41.0535C104.265 40.5372 105.216 40.279 106.264 40.279C107.06 40.279 107.82 40.456 108.543 40.8101C109.266 41.1493 109.841 41.6066 110.269 42.1819V36.3627H113.411V52.7361H110.269V50.9217C109.885 51.5265 109.347 52.0133 108.653 52.3821C107.96 52.7508 107.156 52.9352 106.242 52.9352C105.209 52.9352 104.265 52.6697 103.41 52.1387C102.554 51.6076 101.875 50.8627 101.374 49.9039C100.887 48.9304 100.644 47.8167 100.644 46.5629ZM110.291 46.6071C110.291 45.8548 110.143 45.2132 109.848 44.6822C109.553 44.1364 109.155 43.7233 108.653 43.4431C108.152 43.1481 107.613 43.0006 107.038 43.0006C106.463 43.0006 105.932 43.1407 105.445 43.421C104.958 43.7012 104.56 44.1142 104.25 44.66C103.955 45.1911 103.808 45.8253 103.808 46.5629C103.808 47.3004 103.955 47.9495 104.25 48.51C104.56 49.0558 104.958 49.4762 105.445 49.7712C105.947 50.0662 106.478 50.2137 107.038 50.2137C107.613 50.2137 108.152 50.0736 108.653 49.7933C109.155 49.4983 109.553 49.0853 109.848 48.5542C110.143 48.0085 110.291 47.3594 110.291 46.6071Z" fill="white"/>
<path d="M75.2844 16.9542L73.9292 16.5946L74.676 12.7502C74.8603 11.8925 75.1386 11.0578 75.5057 10.261C76.379 8.4393 77.6335 6.82642 79.1842 5.53155L79.5437 5.19965C81.0494 3.77411 82.7659 2.58933 84.6327 1.68712C79.2682 2.24353 74.0636 3.8406 69.3104 6.38894C68.0813 7.09215 66.9071 7.88728 65.7978 8.7675L64.5809 9.62489L63.7788 8.49092L64.9681 7.63353C66.1352 6.72801 67.3644 5.90548 68.6466 5.172C74.9358 1.80674 81.9527 0.031131 89.0856 0L94.4789 0L89.2792 1.41054C85.9969 2.26825 82.9762 3.92106 80.4841 6.22299L80.2075 6.55488C78.801 7.73074 77.6603 9.19198 76.8609 10.8418C76.5473 11.5532 76.3063 12.2946 76.1418 13.0544L75.2844 16.9542Z" fill="white"/>
<path d="M74.3156 16.0411L74.0943 15.8475C71.4281 13.2521 68.4452 11.0033 65.2162 9.15433C64.9802 8.97797 64.7305 8.82074 64.4694 8.68415L63.9163 8.29694C62.5887 7.57784 61.3994 6.96937 60.3484 6.49919C51.9862 2.88535 42.8036 1.59539 33.7694 2.7654C31.2681 3.14312 28.8059 3.74478 26.4124 4.56315L23.5913 5.53117L26.5507 5.91838C33.9885 6.75267 41.0517 9.62389 46.9621 14.2157C50.0847 16.8999 52.9378 19.8827 55.4807 23.1215C58.2464 26.4957 60.2931 28.8466 62.1462 28.8466C62.4111 28.8548 62.6749 28.8077 62.9206 28.7083C64.1099 28.2382 64.4141 26.9936 64.8013 25.5554C65.1558 23.6377 66.0368 21.8565 67.3458 20.411C68.6807 19.0557 70.366 18.0981 72.2136 17.6453L73.7071 17.3134C74.2431 17.2767 74.7725 17.1745 75.2836 17.0091C75.0145 16.637 74.6877 16.3102 74.3156 16.0411ZM71.9094 16.2624C69.8212 16.7805 67.9107 17.8504 66.3778 19.36C64.9489 20.9898 63.9925 22.979 63.612 25.1128C63.3078 26.3851 63.0865 27.1319 62.5887 27.3255C61.4271 27.768 59.1315 25.0299 56.7253 22.1258C54.0608 18.8519 51.0878 15.8418 47.8471 13.137C42.5687 8.96669 36.3321 6.18111 29.7037 5.03333C31.114 4.65442 32.5455 4.35889 33.9906 4.14828C42.769 3.03275 51.6857 4.31338 59.7953 7.85442C61.1697 8.46021 62.5087 9.14353 63.8057 9.90109C66.8986 11.644 69.7842 13.7317 72.4072 16.1241L71.9094 16.2624Z" fill="white"/>
</svg>
