<svg width="120" height="65" viewBox="0 0 120 65" fill="none" xmlns="http://www.w3.org/2000/svg">
<g clip-path="url(#clip0_649_3764)">
<path d="M9.27062 40.6212C10.7309 40.6212 11.911 41.0859 12.8108 42.0152C13.7106 42.9297 14.1605 44.2131 14.1605 45.8651V53.0562H11.0628V46.2855C11.0628 45.312 10.8195 44.5671 10.3327 44.0508C9.8459 43.5198 9.18211 43.2543 8.34132 43.2543C7.48577 43.2543 6.80724 43.5198 6.30571 44.0508C5.81893 44.5671 5.57555 45.312 5.57555 46.2855V53.0562H2.47788V40.7982H5.57555V42.325C5.98857 41.7939 6.51222 41.3809 7.1465 41.0859C7.79554 40.7761 8.50358 40.6212 9.27062 40.6212ZM28.5012 46.6617C28.5012 47.1042 28.4717 47.5025 28.4127 47.8565H19.4516C19.5254 48.7415 19.8351 49.4348 20.3809 49.9364C20.9267 50.4379 21.5978 50.6887 22.3944 50.6887C23.5449 50.6887 24.3636 50.1945 24.8504 49.2062H28.1914C27.8374 50.3863 27.1589 51.3598 26.1558 52.1269C25.1528 52.8791 23.9211 53.2553 22.4608 53.2553C21.2807 53.2553 20.2186 52.9971 19.2746 52.4809C18.3453 51.9498 17.6151 51.2049 17.0841 50.2461C16.5678 49.2873 16.3097 48.181 16.3097 46.9272C16.3097 45.6586 16.5678 44.5449 17.0841 43.5861C17.6004 42.6273 18.3232 41.8898 19.2525 41.3735C20.1818 40.8572 21.2512 40.5991 22.4608 40.5991C23.6261 40.5991 24.666 40.8499 25.5806 41.3514C26.5099 41.8529 27.2253 42.5683 27.7268 43.4976C28.2431 44.4122 28.5012 45.4669 28.5012 46.6617ZM25.2929 45.7766C25.2782 44.9801 24.9905 44.3458 24.43 43.8738C23.8695 43.387 23.1836 43.1436 22.3723 43.1436C21.6052 43.1436 20.9562 43.3796 20.4252 43.8517C19.9089 44.3089 19.5917 44.9506 19.4737 45.7766H25.2929ZM35.8734 50.2019L38.9711 40.7982H42.2679L37.732 53.0562H33.9705L29.4568 40.7982H32.7757L35.8734 50.2019ZM55.4027 46.6617C55.4027 47.1042 55.3732 47.5025 55.3142 47.8565H46.3531C46.4268 48.7415 46.7366 49.4348 47.2824 49.9364C47.8282 50.4379 48.4993 50.6887 49.2959 50.6887C50.4464 50.6887 51.2651 50.1945 51.7519 49.2062H55.0929C54.7389 50.3863 54.0604 51.3598 53.0573 52.1269C52.0543 52.8791 50.8226 53.2553 49.3622 53.2553C48.1822 53.2553 47.1201 52.9971 46.1761 52.4809C45.2468 51.9498 44.5166 51.2049 43.9856 50.2461C43.4693 49.2873 43.2112 48.181 43.2112 46.9272C43.2112 45.6586 43.4693 44.5449 43.9856 43.5861C44.5019 42.6273 45.2246 41.8898 46.1539 41.3735C47.0832 40.8572 48.1527 40.5991 49.3622 40.5991C50.5275 40.5991 51.5675 40.8499 52.482 41.3514C53.4113 41.8529 54.1267 42.5683 54.6283 43.4976C55.1445 44.4122 55.4027 45.4669 55.4027 46.6617ZM52.1944 45.7766C52.1796 44.9801 51.892 44.3458 51.3315 43.8738C50.7709 43.387 50.085 43.1436 49.2737 43.1436C48.5067 43.1436 47.8577 43.3796 47.3266 43.8517C46.8103 44.3089 46.4932 44.9506 46.3752 45.7766H52.1944ZM60.7614 42.7011C61.1596 42.0521 61.6759 41.5432 62.3102 41.1744C62.9592 40.8056 63.6968 40.6212 64.5228 40.6212V43.8738H63.7042C62.7306 43.8738 61.9931 44.1024 61.4915 44.5597C61.0048 45.017 60.7614 45.8135 60.7614 46.9493V53.0562H57.6637V40.7982H60.7614V42.7011ZM69.7069 36.6828V53.0562H66.6093V36.6828H69.7069ZM71.9709 46.8829C71.9709 45.6439 72.2143 44.5449 72.701 43.5861C73.2026 42.6273 73.8737 41.8898 74.7145 41.3735C75.5701 40.8572 76.5215 40.5991 77.5688 40.5991C78.4834 40.5991 79.2799 40.7835 79.9584 41.1523C80.6517 41.521 81.2049 41.9857 81.6179 42.5462V40.7982H84.7377V53.0562H81.6179V51.2639C81.2196 51.8392 80.6665 52.3186 79.9584 52.7021C79.2651 53.0709 78.4612 53.2553 77.5467 53.2553C76.5141 53.2553 75.5701 52.9898 74.7145 52.4587C73.8737 51.9277 73.2026 51.1828 72.701 50.224C72.2143 49.2504 71.9709 48.1368 71.9709 46.8829ZM81.6179 46.9272C81.6179 46.1749 81.4704 45.5332 81.1754 45.0022C80.8804 44.4564 80.4821 44.0434 79.9806 43.7632C79.479 43.4681 78.9406 43.3206 78.3653 43.3206C77.7901 43.3206 77.259 43.4608 76.7723 43.741C76.2855 44.0213 75.8872 44.4343 75.5774 44.9801C75.2824 45.5111 75.1349 46.1454 75.1349 46.8829C75.1349 47.6205 75.2824 48.2695 75.5774 48.8301C75.8872 49.3758 76.2855 49.7962 76.7723 50.0912C77.2738 50.3863 77.8048 50.5338 78.3653 50.5338C78.9406 50.5338 79.479 50.3936 79.9806 50.1134C80.4821 49.8184 80.8804 49.4053 81.1754 48.8743C81.4704 48.3285 81.6179 47.6795 81.6179 46.9272ZM94.5558 40.6212C96.0162 40.6212 97.1962 41.0859 98.096 42.0152C98.9958 42.9297 99.4457 44.2131 99.4457 45.8651V53.0562H96.3481V46.2855C96.3481 45.312 96.1047 44.5671 95.6179 44.0508C95.1311 43.5198 94.4673 43.2543 93.6265 43.2543C92.771 43.2543 92.0925 43.5198 91.5909 44.0508C91.1042 44.5671 90.8608 45.312 90.8608 46.2855V53.0562H87.7631V40.7982H90.8608V42.325C91.2738 41.7939 91.7974 41.3809 92.4317 41.0859C93.0808 40.7761 93.7888 40.6212 94.5558 40.6212ZM101.595 46.8829C101.595 45.6439 101.838 44.5449 102.325 43.5861C102.827 42.6273 103.505 41.8898 104.361 41.3735C105.216 40.8572 106.168 40.5991 107.215 40.5991C108.011 40.5991 108.771 40.7761 109.494 41.1301C110.217 41.4694 110.792 41.9267 111.22 42.502V36.6828H114.362V53.0562H111.22V51.2418C110.836 51.8466 110.298 52.3334 109.605 52.7021C108.911 53.0709 108.107 53.2553 107.193 53.2553C106.16 53.2553 105.216 52.9898 104.361 52.4587C103.505 51.9277 102.827 51.1828 102.325 50.224C101.838 49.2504 101.595 48.1368 101.595 46.8829ZM111.242 46.9272C111.242 46.1749 111.094 45.5332 110.799 45.0022C110.504 44.4564 110.106 44.0434 109.605 43.7632C109.103 43.4681 108.565 43.3206 107.989 43.3206C107.414 43.3206 106.883 43.4608 106.396 43.741C105.91 44.0213 105.511 44.4343 105.201 44.9801C104.906 45.5111 104.759 46.1454 104.759 46.8829C104.759 47.6205 104.906 48.2695 105.201 48.8301C105.511 49.3758 105.91 49.7962 106.396 50.0912C106.898 50.3863 107.429 50.5338 107.989 50.5338C108.565 50.5338 109.103 50.3936 109.605 50.1134C110.106 49.8184 110.504 49.4053 110.799 48.8743C111.094 48.3285 111.242 47.6795 111.242 46.9272Z" fill="white"/>
<path d="M76.2361 17.274L74.8809 16.9145L75.6276 13.07C75.812 12.2124 76.0902 11.3776 76.4573 10.5808C77.3307 8.75912 78.5851 7.14625 80.1358 5.85137L80.4954 5.51948C82.001 4.09393 83.7175 2.90916 85.5844 2.00695C80.2199 2.56335 75.0153 4.16042 70.262 6.70876C69.0329 7.41198 67.8587 8.2071 66.7495 9.08733L65.5325 9.94472L64.7305 8.81075L65.9198 7.95336C67.0868 7.04784 68.316 6.22531 69.5982 5.49182C75.8874 2.12656 82.9044 0.350955 90.0373 0.319824L95.4306 0.319824L90.2309 1.73037C86.9485 2.58807 83.9279 4.24088 81.4357 6.54281L81.1592 6.87471C79.7526 8.05057 78.6119 9.5118 77.8126 11.1617C77.4989 11.8731 77.258 12.6144 77.0935 13.3743L76.2361 17.274Z" fill="white"/>
<path d="M75.2673 16.3609L75.046 16.1673C72.3798 13.5719 69.3969 11.3231 66.1679 9.47416C65.9319 9.29779 65.6821 9.14057 65.4211 9.00398L64.8679 8.61677C63.5404 7.89767 62.3511 7.2892 61.3001 6.81901C52.9379 3.20517 43.7553 1.91522 34.721 3.08522C32.2198 3.46294 29.7576 4.06461 27.3641 4.88297L24.543 5.85099L27.5023 6.2382C34.9402 7.0725 42.0034 9.94372 47.9138 14.5355C51.0364 17.2198 53.8895 20.2025 56.4323 23.4413C59.1981 26.8156 61.2448 29.1665 63.0978 29.1665C63.3628 29.1746 63.6265 29.1275 63.8723 29.0282C65.0616 28.558 65.3658 27.3134 65.753 25.8752C66.1075 23.9576 66.9885 22.1764 68.2975 20.7309C69.6324 19.3755 71.3177 18.418 73.1653 17.9651L74.6588 17.6332C75.1947 17.5965 75.7242 17.4943 76.2353 17.329C75.9662 16.9568 75.6394 16.63 75.2673 16.3609ZM72.861 16.5822C70.7729 17.1004 68.8624 18.1702 67.3295 19.6799C65.9006 21.3096 64.9442 23.2989 64.5637 25.4327C64.2595 26.7049 64.0382 27.4517 63.5404 27.6453C62.3787 28.0878 60.0832 25.3497 57.6769 22.4456C55.0125 19.1718 52.0394 16.1617 48.7988 13.4569C43.5204 9.28652 37.2837 6.50094 30.6553 5.35315C32.0657 4.97425 33.4972 4.67872 34.9423 4.46811C43.7207 3.35257 52.6373 4.63321 60.7469 8.17424C62.1214 8.78003 63.4603 9.46335 64.7573 10.2209C67.8502 11.9639 70.7358 14.0515 73.3589 16.4439L72.861 16.5822Z" fill="white"/>
</g>
<defs>
<clipPath id="clip0_649_3764">
<rect width="118.099" height="64" fill="white" transform="translate(0.951172 0.319824)"/>
</clipPath>
</defs>
</svg>
