<svg width="117" height="63" viewBox="0 0 117 63" fill="none" xmlns="http://www.w3.org/2000/svg">
<path d="M8.42532 41.5069C9.90406 41.5069 11.099 41.9774 12.0101 42.9185C12.9213 43.8445 13.3769 45.144 13.3769 46.817V54.0986H10.2401V47.2427C10.2401 46.2568 9.99368 45.5025 9.50077 44.9797C9.00785 44.442 8.3357 44.1731 7.4843 44.1731C6.61797 44.1731 5.93088 44.442 5.42303 44.9797C4.93011 45.5025 4.68366 46.2568 4.68366 47.2427V54.0986H1.54693V41.6862H4.68366V43.2321C5.10189 42.6944 5.63214 42.2762 6.27442 41.9774C6.93164 41.6638 7.64861 41.5069 8.42532 41.5069ZM27.8984 47.6235C27.8984 48.0716 27.8685 48.4749 27.8088 48.8334H18.7347C18.8094 49.7296 19.123 50.4317 19.6757 50.9395C20.2284 51.4474 20.908 51.7013 21.7146 51.7013C22.8796 51.7013 23.7086 51.2009 24.2015 50.2001H27.5847C27.2262 51.3951 26.5391 52.3809 25.5234 53.1576C24.5077 53.9194 23.2605 54.3003 21.7818 54.3003C20.5868 54.3003 19.5114 54.0389 18.5554 53.5161C17.6144 52.9784 16.875 52.2241 16.3373 51.2532C15.8145 50.2823 15.5531 49.162 15.5531 47.8924C15.5531 46.6078 15.8145 45.4801 16.3373 44.5092C16.8601 43.5383 17.592 42.7915 18.533 42.2687C19.474 41.7459 20.557 41.4845 21.7818 41.4845C22.9618 41.4845 24.0148 41.7384 24.9409 42.2463C25.8819 42.7541 26.6064 43.4786 27.1142 44.4196C27.637 45.3457 27.8984 46.4137 27.8984 47.6235ZM24.6496 46.7273C24.6347 45.9207 24.3434 45.2785 23.7758 44.8005C23.2082 44.3076 22.5137 44.0611 21.6922 44.0611C20.9154 44.0611 20.2582 44.3001 19.7205 44.7781C19.1977 45.2411 18.8766 45.8909 18.7571 46.7273H24.6496ZM35.3635 51.2084L38.5002 41.6862H41.8386L37.2455 54.0986H33.4367L28.866 41.6862H32.2268L35.3635 51.2084ZM55.139 47.6235C55.139 48.0716 55.1092 48.4749 55.0494 48.8334H45.9753C46.05 49.7296 46.3637 50.4317 46.9163 50.9395C47.469 51.4474 48.1486 51.7013 48.9552 51.7013C50.1203 51.7013 50.9493 51.2009 51.4422 50.2001H54.8254C54.4669 51.3951 53.7798 52.3809 52.7641 53.1576C51.7484 53.9194 50.5012 54.3003 49.0224 54.3003C47.8275 54.3003 46.752 54.0389 45.7961 53.5161C44.8551 52.9784 44.1157 52.2241 43.578 51.2532C43.0552 50.2823 42.7938 49.162 42.7938 47.8924C42.7938 46.6078 43.0552 45.4801 43.578 44.5092C44.1008 43.5383 44.8327 42.7915 45.7737 42.2687C46.7147 41.7459 47.7976 41.4845 49.0224 41.4845C50.2024 41.4845 51.2555 41.7384 52.1816 42.2463C53.1226 42.7541 53.847 43.4786 54.3549 44.4196C54.8777 45.3457 55.139 46.4137 55.139 47.6235ZM51.8903 46.7273C51.8754 45.9207 51.5841 45.2785 51.0165 44.8005C50.4489 44.3076 49.7543 44.0611 48.9328 44.0611C48.1561 44.0611 47.4989 44.3001 46.9612 44.7781C46.4384 45.2411 46.1172 45.8909 45.9977 46.7273H51.8903ZM60.5653 43.613C60.9686 42.9558 61.4914 42.4405 62.1337 42.0671C62.7909 41.6936 63.5377 41.5069 64.3742 41.5069V44.8005H63.5452C62.5594 44.8005 61.8125 45.032 61.3047 45.495C60.8118 45.9581 60.5653 46.7647 60.5653 47.9148V54.0986H57.4286V41.6862H60.5653V43.613ZM69.6236 37.5188V54.0986H66.4869V37.5188H69.6236ZM71.9161 47.8476C71.9161 46.5929 72.1626 45.4801 72.6555 44.5092C73.1634 43.5383 73.843 42.7915 74.6944 42.2687C75.5607 41.7459 76.5241 41.4845 77.5847 41.4845C78.5107 41.4845 79.3173 41.6712 80.0044 42.0447C80.7064 42.4181 81.2666 42.8886 81.6848 43.4562V41.6862H84.8439V54.0986H81.6848V52.2838C81.2815 52.8663 80.7214 53.3518 80.0044 53.7402C79.3024 54.1136 78.4883 54.3003 77.5622 54.3003C76.5167 54.3003 75.5607 54.0314 74.6944 53.4937C73.843 52.956 73.1634 52.2017 72.6555 51.2308C72.1626 50.2449 71.9161 49.1172 71.9161 47.8476ZM81.6848 47.8924C81.6848 47.1306 81.5354 46.4809 81.2367 45.9432C80.938 45.3905 80.5347 44.9723 80.0268 44.6885C79.519 44.3897 78.9738 44.2404 78.3912 44.2404C77.8087 44.2404 77.271 44.3823 76.7781 44.6661C76.2852 44.9499 75.8819 45.3681 75.5682 45.9207C75.2695 46.4585 75.1201 47.1008 75.1201 47.8476C75.1201 48.5944 75.2695 49.2516 75.5682 49.8192C75.8819 50.3719 76.2852 50.7976 76.7781 51.0963C77.2859 51.3951 77.8236 51.5444 78.3912 51.5444C78.9738 51.5444 79.519 51.4025 80.0268 51.1187C80.5347 50.82 80.938 50.4018 81.2367 49.8641C81.5354 49.3114 81.6848 48.6542 81.6848 47.8924ZM94.7859 41.5069C96.2646 41.5069 97.4596 41.9774 98.3707 42.9185C99.2818 43.8445 99.7374 45.144 99.7374 46.817V54.0986H96.6007V47.2427C96.6007 46.2568 96.3542 45.5025 95.8613 44.9797C95.3684 44.442 94.6962 44.1731 93.8449 44.1731C92.9785 44.1731 92.2914 44.442 91.7836 44.9797C91.2907 45.5025 91.0442 46.2568 91.0442 47.2427V54.0986H87.9075V41.6862H91.0442V43.2321C91.4624 42.6944 91.9927 42.2762 92.635 41.9774C93.2922 41.6638 94.0092 41.5069 94.7859 41.5069ZM101.914 47.8476C101.914 46.5929 102.16 45.4801 102.653 44.5092C103.161 43.5383 103.848 42.7915 104.714 42.2687C105.581 41.7459 106.544 41.4845 107.605 41.4845C108.411 41.4845 109.18 41.6638 109.912 42.0222C110.644 42.3658 111.227 42.8288 111.66 43.4114V37.5188H114.841V54.0986H111.66V52.2614C111.272 52.8738 110.726 53.3667 110.024 53.7402C109.322 54.1136 108.508 54.3003 107.582 54.3003C106.537 54.3003 105.581 54.0314 104.714 53.4937C103.848 52.956 103.161 52.2017 102.653 51.2308C102.16 50.2449 101.914 49.1172 101.914 47.8476ZM111.682 47.8924C111.682 47.1306 111.533 46.4809 111.234 45.9432C110.936 45.3905 110.532 44.9723 110.024 44.6885C109.517 44.3897 108.971 44.2404 108.389 44.2404C107.806 44.2404 107.269 44.3823 106.776 44.6661C106.283 44.9499 105.879 45.3681 105.566 45.9207C105.267 46.4585 105.118 47.1008 105.118 47.8476C105.118 48.5944 105.267 49.2516 105.566 49.8192C105.879 50.3719 106.283 50.7976 106.776 51.0963C107.283 51.3951 107.821 51.5444 108.389 51.5444C108.971 51.5444 109.517 51.4025 110.024 51.1187C110.532 50.82 110.936 50.4018 111.234 49.8641C111.533 49.3114 111.682 48.6542 111.682 47.8924Z" fill="#00A6A6"/>
<path d="M76.2356 17.168L74.8633 16.8039L75.6195 12.911C75.8062 12.0425 76.088 11.1972 76.4597 10.3904C77.344 8.5457 78.6143 6.9125 80.1846 5.60129L80.5486 5.26522C82.0733 3.82169 83.8114 2.62198 85.7018 1.70839C80.2697 2.27182 74.9995 3.88903 70.1863 6.46949C68.9417 7.18158 67.7527 7.98673 66.6294 8.87805L65.3972 9.74625L64.585 8.59798L65.7892 7.72978C66.971 6.81285 68.2157 5.97994 69.5141 5.23721C75.8826 1.82952 82.9881 0.0315236 90.2109 0L95.6721 0L90.4069 1.42833C87.0832 2.29685 84.0244 3.9705 81.5009 6.30145L81.2208 6.63753C79.7965 7.82822 78.6415 9.30788 77.832 10.9785C77.5144 11.6989 77.2704 12.4496 77.1039 13.2191L76.2356 17.168Z" fill="#F49F0A"/>
<path d="M75.2545 16.2441L75.0304 16.048C72.3306 13.4199 69.3101 11.1427 66.0403 9.27045C65.8014 9.09186 65.5485 8.93265 65.2842 8.79434L64.724 8.40225C63.3797 7.67408 62.1755 7.05794 61.1112 6.58183C52.6435 2.92242 43.3452 1.6162 34.197 2.80096C31.6643 3.18344 29.171 3.79269 26.7473 4.62138L23.8906 5.6016L26.8873 5.99369C34.4189 6.83851 41.5712 9.74593 47.5561 14.3956C50.7181 17.1137 53.6071 20.1341 56.1821 23.4137C58.9827 26.8305 61.0552 29.211 62.9316 29.211C63.1999 29.2193 63.467 29.1716 63.7158 29.071C64.9201 28.5949 65.2282 27.3346 65.6203 25.8783C65.9792 23.9365 66.8713 22.1328 68.1968 20.6691C69.5485 19.2967 71.2551 18.327 73.126 17.8684L74.6383 17.5324C75.181 17.4952 75.7171 17.3917 76.2347 17.2243C75.9622 16.8475 75.6313 16.5166 75.2545 16.2441ZM72.8179 16.4681C70.7034 16.9928 68.7689 18.0762 67.2166 19.6048C65.7697 21.2551 64.8012 23.2695 64.416 25.4302C64.1079 26.7185 63.8839 27.4746 63.3797 27.6707C62.2035 28.1188 59.8789 25.3462 57.4424 22.4055C54.7443 19.0903 51.7338 16.0423 48.4523 13.3034C43.1073 9.08044 36.792 6.25974 30.0801 5.09749C31.5082 4.7138 32.9577 4.41455 34.4211 4.20128C43.3101 3.07168 52.3392 4.36846 60.5511 7.95414C61.9429 8.56757 63.2987 9.25951 64.612 10.0266C67.7439 11.7915 70.6659 13.9055 73.322 16.3281L72.8179 16.4681Z" fill="#F49F0A"/>
</svg>
