<svg width="96" height="101" viewBox="0 0 96 101" fill="none" xmlns="http://www.w3.org/2000/svg">
<mask id="path-1-inside-1_424_564" fill="white">
<path fill-rule="evenodd" clip-rule="evenodd" d="M46.8368 0.952696C70.0268 0.286975 86.8114 19.1075 93.542 39.2485C99.821 58.0381 94.0047 78.5042 76.6894 90.2852C58.5262 102.643 32.994 105.312 15.1321 92.5975C-1.25378 80.9339 -7.00246 61.4355 11.4976 39.2485C25.5166 22.4355 25.068 1.57762 46.8368 0.952696Z"/>
</mask>
<path fill-rule="evenodd" clip-rule="evenodd" d="M46.8368 0.952696C70.0268 0.286975 86.8114 19.1075 93.542 39.2485C99.821 58.0381 94.0047 78.5042 76.6894 90.2852C58.5262 102.643 32.994 105.312 15.1321 92.5975C-1.25378 80.9339 -7.00246 61.4355 11.4976 39.2485C25.5166 22.4355 25.068 1.57762 46.8368 0.952696Z" fill="#F49F0A"/>
<path d="M46.8368 0.952696L46.7507 -2.04607L46.8368 0.952696ZM93.542 39.2485L90.6967 40.1994L93.542 39.2485ZM76.6894 90.2852L78.377 92.7656L76.6894 90.2852ZM15.1321 92.5975L16.8718 90.1535L15.1321 92.5975ZM11.4976 39.2485L13.8017 41.1697L11.4976 39.2485ZM46.9229 3.95146C68.2318 3.33974 84.1757 20.6857 90.6967 40.1994L96.3873 38.2977C89.447 17.5293 71.8219 -2.76579 46.7507 -2.04607L46.9229 3.95146ZM90.6967 40.1994C96.5796 57.8037 91.1311 76.8308 75.0018 87.8049L78.377 92.7656C96.8782 80.1776 103.062 58.2725 96.3873 38.2977L90.6967 40.1994ZM75.0018 87.8049C57.5903 99.6515 33.4557 101.958 16.8718 90.1535L13.3924 95.0416C32.5322 108.665 59.4621 105.635 78.377 92.7656L75.0018 87.8049ZM16.8718 90.1535C9.17264 84.6731 4.24795 77.5595 3.20804 69.486C2.17058 61.4317 4.92266 51.8183 13.8017 41.1697L9.19347 37.3273C-0.42754 48.8657 -4.05114 60.0951 -2.7428 70.2525C-1.43691 80.3909 4.70569 88.8583 13.3924 95.0416L16.8718 90.1535ZM13.8017 41.1697C17.5039 36.7297 20.219 32.0603 22.5295 27.6525C24.9037 23.1232 26.7076 19.1781 28.845 15.5542C30.9291 12.0208 33.0953 9.23609 35.843 7.27943C38.5383 5.36 41.9986 4.09282 46.9229 3.95146L46.7507 -2.04607C40.7906 -1.87497 36.1437 -0.300567 32.3626 2.39204C28.6338 5.0474 25.9543 8.64513 23.677 12.506C21.4532 16.2763 19.3801 20.7372 17.2153 24.8669C14.9868 29.1182 12.5008 33.3608 9.19347 37.3273L13.8017 41.1697Z" fill="white" mask="url(#path-1-inside-1_424_564)"/>
<g clip-path="url(#clip0_424_564)">
<path d="M63.8913 37.2816C63.2329 36.7325 62.461 36.3362 61.6312 36.1211C60.8013 35.906 59.9341 35.8775 59.0919 36.0377L45.6985 38.5489C44.0269 38.8622 42.5174 39.75 41.4311 41.0586C40.3448 42.3672 39.7502 44.0144 39.75 45.7152V60.0798C38.8672 59.5549 37.8604 59.275 36.8333 59.2689C35.6796 59.2689 34.5518 59.611 33.5925 60.252C32.6332 60.893 31.8855 61.804 31.444 62.8699C31.0025 63.9358 30.887 65.1087 31.1121 66.2403C31.3372 67.3718 31.8927 68.4112 32.7085 69.227C33.5244 70.0428 34.5638 70.5984 35.6953 70.8235C36.8269 71.0486 37.9998 70.9331 39.0657 70.4916C40.1316 70.05 41.0426 69.3024 41.6836 68.3431C42.3246 67.3838 42.6667 66.256 42.6667 65.1023V51.7964C42.6666 51.1159 42.9045 50.4569 43.3391 49.9333C43.7738 49.4097 44.3778 49.0545 45.0467 48.9293L61.3552 45.8668C61.5668 45.827 61.7845 45.8345 61.9928 45.8888C62.2011 45.9431 62.3948 46.0428 62.56 46.1808C62.7252 46.3188 62.8578 46.4917 62.9483 46.6871C63.0388 46.8824 63.0849 47.0953 63.0833 47.3106V55.7106C62.2011 55.1837 61.1942 54.9017 60.1667 54.8939C59.0129 54.8939 57.8851 55.236 56.9258 55.877C55.9666 56.518 55.2189 57.429 54.7774 58.4949C54.3359 59.5608 54.2203 60.7337 54.4454 61.8653C54.6705 62.9968 55.2261 64.0362 56.0419 64.852C56.8577 65.6678 57.8971 66.2234 59.0286 66.4485C60.1602 66.6736 61.3331 66.5581 62.399 66.1166C63.4649 65.675 64.3759 64.9274 65.0169 63.9681C65.6579 63.0088 66 61.881 66 60.7273V41.7689C66.001 40.9118 65.8125 40.065 65.4479 39.2892C65.0833 38.5135 64.5518 37.8279 63.8913 37.2816ZM36.8333 68.0189C36.2565 68.0189 35.6926 67.8479 35.2129 67.5274C34.7333 67.2069 34.3594 66.7514 34.1387 66.2184C33.9179 65.6855 33.8602 65.099 33.9727 64.5332C34.0853 63.9675 34.363 63.4478 34.7709 63.0399C35.1788 62.632 35.6985 62.3542 36.2643 62.2416C36.8301 62.1291 37.4165 62.1868 37.9495 62.4076C38.4824 62.6284 38.938 63.0022 39.2585 63.4818C39.5789 63.9615 39.75 64.5254 39.75 65.1023C39.75 65.8758 39.4427 66.6177 38.8957 67.1646C38.3488 67.7116 37.6069 68.0189 36.8333 68.0189ZM60.8185 43.0056L44.5085 46.0623C43.8601 46.1858 43.2373 46.4186 42.6667 46.7506V45.7152C42.6665 44.6947 43.0231 43.7062 43.6748 42.9208C44.3265 42.1355 45.2322 41.6027 46.2352 41.4145L59.63 38.9033C60.0511 38.8245 60.4843 38.8394 60.899 38.9469C61.3137 39.0545 61.6995 39.2521 62.0292 39.5256C62.3589 39.7992 62.6242 40.142 62.8064 40.5297C62.9886 40.9174 63.0832 41.3405 63.0833 41.7689V43.2039C62.3598 42.9363 61.5776 42.8678 60.8185 43.0056ZM60.1667 63.6439C59.5898 63.6439 59.0259 63.4729 58.5463 63.1524C58.0666 62.8319 57.6928 62.3764 57.472 61.8434C57.2513 61.3105 57.1935 60.724 57.306 60.1582C57.4186 59.5925 57.6964 59.0728 58.1043 58.6649C58.5122 58.257 59.0319 57.9792 59.5977 57.8666C60.1634 57.7541 60.7499 57.8118 61.2828 58.0326C61.8158 58.2534 62.2713 58.6272 62.5918 59.1068C62.9123 59.5865 63.0833 60.1504 63.0833 60.7273C63.0833 61.5008 62.776 62.2427 62.2291 62.7896C61.6821 63.3366 60.9402 63.6439 60.1667 63.6439Z" fill="white"/>
</g>
<defs>
<clipPath id="clip0_424_564">
<rect width="35" height="35" fill="white" transform="translate(31 35.9355)"/>
</clipPath>
</defs>
</svg>
