<svg width="62" height="26" viewBox="0 0 62 26" fill="none" xmlns="http://www.w3.org/2000/svg">
<path d="M44.6877 14.8931L43.5172 14.5826L44.1622 11.2622C44.3214 10.5214 44.5617 9.80044 44.8788 9.1123C45.6331 7.5389 46.7166 6.14588 48.0559 5.02752L48.3664 4.74087C49.6668 3.50964 51.1494 2.48637 52.7617 1.70714C48.1285 2.1877 43.6334 3.56707 39.528 5.76803C38.4664 6.37539 37.4523 7.06213 36.4943 7.82237L35.4432 8.56288L34.7505 7.58349L35.7777 6.84297C36.7857 6.06089 37.8473 5.35048 38.9547 4.71698C44.3866 1.81045 50.4471 0.276887 56.6076 0.25L61.2657 0.25L56.7748 1.46827C53.9399 2.20905 51.331 3.63656 49.1786 5.62471L48.9397 5.91136C47.7249 6.92693 46.7397 8.18898 46.0493 9.61393C45.7784 10.2284 45.5703 10.8686 45.4282 11.5249L44.6877 14.8931Z" fill="white"/>
<path d="M43.8513 14.1045L43.6602 13.9373C41.3575 11.6956 38.7812 9.75336 35.9923 8.15646C35.7885 8.00414 35.5728 7.86834 35.3474 7.75037L34.8696 7.41595C33.723 6.79487 32.6958 6.26934 31.7881 5.86325C24.5658 2.74203 16.6349 1.62791 8.83214 2.63843C6.67188 2.96466 4.5453 3.48431 2.47804 4.19112L0.0415039 5.02719L2.59748 5.36161C9.02142 6.08218 15.1218 8.56201 20.2265 12.5279C22.9235 14.8462 25.3876 17.4224 27.5839 20.2197C29.9726 23.134 31.7403 25.1644 33.3408 25.1644C33.5696 25.1715 33.7974 25.1308 34.0096 25.045C35.0368 24.6389 35.2996 23.564 35.634 22.3218C35.9402 20.6656 36.7011 19.1272 37.8317 17.8787C38.9845 16.7081 40.4401 15.8811 42.0359 15.4899L43.3258 15.2033C43.7887 15.1716 44.2459 15.0834 44.6874 14.9405C44.455 14.6191 44.1727 14.3369 43.8513 14.1045ZM41.7731 14.2956C39.9696 14.7431 38.3196 15.6671 36.9956 16.971C35.7615 18.3786 34.9354 20.0967 34.6068 21.9396C34.3441 23.0384 34.153 23.6834 33.723 23.8506C32.7197 24.2328 30.737 21.8679 28.6588 19.3597C26.3576 16.5321 23.7898 13.9324 20.9909 11.5963C16.432 7.9944 11.0455 5.58853 5.32066 4.59721C6.53878 4.26995 7.77511 4.01471 9.02324 3.83281C16.605 2.86933 24.3062 3.9754 31.3104 7.03374C32.4974 7.55695 33.6539 8.14713 34.774 8.80142C37.4454 10.3068 39.9376 12.1098 42.2031 14.1761L41.7731 14.2956Z" fill="white"/>
</svg>
