<svg width="25" height="25" viewBox="0 0 25 25" fill="none" xmlns="http://www.w3.org/2000/svg">
<path d="M6.33203 23.4375C6.3324 23.0233 6.49726 22.6261 6.79036 22.3334L14.782 14.3417C15.0239 14.0999 15.2158 13.8128 15.3467 13.4968C15.4776 13.1808 15.545 12.8421 15.545 12.5C15.545 12.158 15.4776 11.8193 15.3467 11.5033C15.2158 11.1873 15.0239 10.9002 14.782 10.6584L6.80078 2.67191C6.51616 2.37722 6.35867 1.98253 6.36223 1.57285C6.36579 1.16317 6.53011 0.771272 6.81981 0.481572C7.10952 0.191871 7.50141 0.0275449 7.91109 0.0239848C8.32077 0.0204248 8.71547 0.177916 9.01016 0.462538L16.9914 8.44275C18.0646 9.51802 18.6673 10.9751 18.6673 12.4943C18.6673 14.0135 18.0646 15.4706 16.9914 16.5459L8.99974 24.5375C8.78153 24.7559 8.50353 24.9047 8.20083 24.9652C7.89813 25.0257 7.58428 24.9952 7.29889 24.8776C7.01351 24.7599 6.76938 24.5603 6.5973 24.304C6.42522 24.0477 6.33292 23.7462 6.33203 23.4375V23.4375Z" fill="#C4C4C4"/>
</svg>
