<svg width="25" height="25" viewBox="0 0 25 25" fill="none" xmlns="http://www.w3.org/2000/svg">
<path d="M18.6673 1.5676C18.6669 1.98186 18.5021 2.37903 18.209 2.67177L10.2173 10.6634C9.97539 10.9053 9.78351 11.1924 9.6526 11.5084C9.52168 11.8244 9.4543 12.1631 9.4543 12.5051C9.4543 12.8471 9.52168 13.1858 9.6526 13.5018C9.78351 13.8178 9.97539 14.1049 10.2173 14.3468L18.1985 22.328C18.4832 22.6227 18.6406 23.0174 18.6371 23.4271C18.6335 23.8368 18.4692 24.2287 18.1795 24.5184C17.8898 24.8081 17.4979 24.9724 17.0882 24.9759C16.6785 24.9795 16.2839 24.822 15.9892 24.5374L8.00791 16.5624C6.93475 15.4871 6.33203 14.03 6.33203 12.5108C6.33203 10.9917 6.93475 9.53454 8.00791 8.45927L15.9996 0.462395C16.2181 0.243733 16.4966 0.094805 16.7998 0.034457C17.103 -0.025891 17.4172 0.00505285 17.7028 0.123373C17.9884 0.241693 18.2325 0.442072 18.4042 0.699154C18.5759 0.956236 18.6674 1.25847 18.6673 1.5676Z" fill="#C4C4C4"/>
</svg>
