<svg width="57" height="57" viewBox="0 0 57 57" fill="none" xmlns="http://www.w3.org/2000/svg">
<circle cx="28.5" cy="28.5" r="28.5" fill="#949090" fill-opacity="0.87"/>
<path d="M34.6673 17.5676C34.6669 17.9819 34.5021 18.379 34.209 18.6718L26.2173 26.6634C25.9754 26.9053 25.7835 27.1924 25.6526 27.5084C25.5217 27.8244 25.4543 28.1631 25.4543 28.5051C25.4543 28.8471 25.5217 29.1858 25.6526 29.5018C25.7835 29.8178 25.9754 30.1049 26.2173 30.3468L34.1985 38.328C34.4832 38.6227 34.6407 39.0174 34.6371 39.4271C34.6335 39.8368 34.4692 40.2287 34.1795 40.5184C33.8898 40.8081 33.4979 40.9724 33.0882 40.9759C32.6785 40.9795 32.2839 40.822 31.9892 40.5374L24.0079 32.5624C22.9347 31.4871 22.332 30.03 22.332 28.5108C22.332 26.9917 22.9347 25.5345 24.0079 24.4593L31.9996 16.4624C32.2181 16.2437 32.4966 16.0948 32.7998 16.0345C33.103 15.9741 33.4172 16.0051 33.7028 16.1234C33.9884 16.2417 34.2325 16.4421 34.4042 16.6992C34.5759 16.9562 34.6674 17.2585 34.6673 17.5676V17.5676Z" fill="#545353"/>
</svg>
