<svg width="50" height="49" viewBox="0 0 50 49" fill="none" xmlns="http://www.w3.org/2000/svg">
<rect x="0.80625" y="0.30625" width="48.3875" height="48.3875" rx="24.1938" fill="#F49F0A"/>
<path d="M25.0206 15.4102C21.7106 15.4102 19.0206 18.1002 19.0206 21.4102V24.3002C19.0206 24.9102 18.7606 25.8402 18.4506 26.3602L17.3006 28.2702C16.5906 29.4502 17.0806 30.7602 18.3806 31.2002C22.6906 32.6402 27.3406 32.6402 31.6506 31.2002C32.8606 30.8002 33.3906 29.3702 32.7306 28.2702L31.5806 26.3602C31.2806 25.8402 31.0206 24.9102 31.0206 24.3002V21.4102C31.0206 18.1102 28.3206 15.4102 25.0206 15.4102Z" stroke="white" stroke-width="1.225" stroke-miterlimit="10" stroke-linecap="round"/>
<path d="M26.8699 15.6999C26.5599 15.6099 26.2399 15.5399 25.9099 15.4999C24.9499 15.3799 24.0299 15.4499 23.1699 15.6999C23.4599 14.9599 24.1799 14.4399 25.0199 14.4399C25.8599 14.4399 26.5799 14.9599 26.8699 15.6999Z" stroke="white" stroke-width="1.225" stroke-miterlimit="10" stroke-linecap="round" stroke-linejoin="round"/>
<path d="M28.0195 31.5601C28.0195 33.2101 26.6695 34.5601 25.0195 34.5601C24.1995 34.5601 23.4395 34.2201 22.8995 33.6801C22.3595 33.1401 22.0195 32.3801 22.0195 31.5601" stroke="white" stroke-width="1.225" stroke-miterlimit="10"/>
<rect x="0.80625" y="0.30625" width="48.3875" height="48.3875" rx="24.1938" stroke="#F49F0A" stroke-width="0.6125"/>
</svg>
