<svg width="14" height="17" viewBox="0 0 14 17" fill="none" xmlns="http://www.w3.org/2000/svg">
<path d="M10.333 0.5H3.66634C2.78261 0.501059 1.93538 0.852588 1.31049 1.47748C0.685596 2.10237 0.334066 2.9496 0.333008 3.83333V13.8333C0.333008 14.5406 0.613959 15.2189 1.11406 15.719C1.61415 16.219 2.29243 16.5 2.99967 16.5H10.333C11.2167 16.4989 12.064 16.1474 12.6889 15.5225C13.3138 14.8976 13.6653 14.0504 13.6663 13.1667V3.83333C13.6653 2.9496 13.3138 2.10237 12.6889 1.47748C12.064 0.852588 11.2167 0.501059 10.333 0.5V0.5ZM12.333 3.83333V11.1667H4.33301V1.83333H10.333C10.8634 1.83333 11.3721 2.04405 11.7472 2.41912C12.1223 2.79419 12.333 3.3029 12.333 3.83333ZM2.99967 1.948V11.1667C2.53143 11.1663 2.07141 11.2898 1.66634 11.5247V3.83333C1.6664 3.41979 1.79465 3.01644 2.03343 2.6788C2.27221 2.34116 2.60978 2.08585 2.99967 1.948ZM10.333 15.1667H2.99967C2.64605 15.1667 2.30691 15.0262 2.05687 14.7761C1.80682 14.5261 1.66634 14.187 1.66634 13.8333C1.66634 13.4797 1.80682 13.1406 2.05687 12.8905C2.30691 12.6405 2.64605 12.5 2.99967 12.5H12.333V13.1667C12.333 13.6971 12.1223 14.2058 11.7472 14.5809C11.3721 14.956 10.8634 15.1667 10.333 15.1667Z" fill="#0E0B0B"/>
</svg>
