<svg width="35" height="35" viewBox="0 0 35 35" fill="none" xmlns="http://www.w3.org/2000/svg">
<g clip-path="url(#clip0_649_4205)">
<path d="M5.52271 30.1236C4.05849 30.1229 2.65443 29.541 1.61893 28.5057C0.583433 27.4705 0.00115931 26.0666 1.96348e-07 24.6024V10.3982C-0.000271827 9.37846 0.282111 8.37857 0.81579 7.5096C1.34947 6.64062 2.11356 5.93657 3.02321 5.47563C3.93286 5.01469 4.95247 4.81489 5.96881 4.89843C6.98515 4.98196 7.95845 5.34557 8.78063 5.94886L14.2917 9.99427C14.3637 9.01167 14.6976 8.06629 15.2586 7.25637C15.8196 6.44645 16.5872 5.80153 17.4818 5.38864C18.3763 4.97575 19.3651 4.80995 20.3454 4.90847C21.3257 5.00698 22.2618 5.36622 23.0563 5.94886L32.741 13.0509C33.4392 13.5636 34.0068 14.2333 34.3981 15.0061C34.7893 15.7788 34.9932 16.6327 34.9932 17.4989C34.9932 18.365 34.7893 19.2189 34.3981 19.9916C34.0068 20.7644 33.4392 21.4341 32.741 21.9468L23.0563 29.0489C22.2619 29.6314 21.3262 29.9907 20.3461 30.0893C19.366 30.188 18.3774 30.0224 17.4829 29.6099C16.5885 29.1973 15.8208 28.5528 15.2596 27.7433C14.6984 26.9337 14.3642 25.9887 14.2917 25.0064L8.78063 29.0518C7.83649 29.7469 6.69511 30.1224 5.52271 30.1236Z" fill="#00A6A6"/>
</g>
<defs>
<clipPath id="clip0_649_4205">
<rect width="35" height="35" fill="white"/>
</clipPath>
</defs>
</svg>
