<svg width="35" height="35" viewBox="0 0 35 35" fill="none" xmlns="http://www.w3.org/2000/svg">
<g clip-path="url(#clip0_649_4207)">
<path d="M29.8842 11.6224L15.9746 1.42278C14.8882 0.627241 13.6027 0.148072 12.2606 0.0383921C10.9185 -0.0712884 9.57229 0.192803 8.37111 0.801394C7.16994 1.40998 6.16075 2.3393 5.4554 3.48634C4.75006 4.63337 4.37611 5.95332 4.37501 7.29987V27.7092C4.37291 29.0571 4.74491 30.3791 5.44958 31.5281C6.15426 32.6771 7.16396 33.608 8.36631 34.2172C9.56866 34.8264 10.9165 35.09 12.2597 34.9786C13.603 34.8672 14.889 34.3852 15.9746 33.5863L29.8842 23.3867C30.8071 22.7094 31.5576 21.8243 32.0749 20.803C32.5922 19.7817 32.8618 18.653 32.8618 17.5082C32.8618 16.3634 32.5922 15.2347 32.0749 14.2134C31.5576 13.1921 30.8071 12.307 29.8842 11.6297V11.6224Z" fill="#00A6A6"/>
</g>
<defs>
<clipPath id="clip0_649_4207">
<rect width="35" height="35" fill="white"/>
</clipPath>
</defs>
</svg>
