<svg width="35" height="27" viewBox="0 0 35 27" fill="none" xmlns="http://www.w3.org/2000/svg">
<path d="M15.1953 26.1235C14.0234 26.1224 12.8824 25.7469 11.9389 25.0516L2.25409 17.9495C1.55597 17.4369 0.98833 16.7671 0.597078 15.9944C0.205826 15.2217 0.00195313 14.3677 0.00195312 13.5016C0.00195313 12.6355 0.205826 11.7815 0.597078 11.0088C0.98833 10.2361 1.55597 9.56633 2.25409 9.05369L11.9389 1.95161C12.7332 1.36791 13.6694 1.00769 14.6501 0.908422C15.6308 0.80915 16.6202 0.974449 17.5154 1.38713C18.4106 1.7998 19.1788 2.44479 19.7403 3.25499C20.3017 4.06519 20.6358 5.01102 20.7078 5.99411L26.2233 1.94869C27.0456 1.3472 28.0183 0.9851 29.0338 0.902506C30.0493 0.819911 31.0678 1.02005 31.9765 1.48074C32.8852 1.94144 33.6486 2.64471 34.1822 3.51263C34.7158 4.38056 34.9987 5.37925 34.9995 6.39807V20.6022C34.9992 21.6218 34.7165 22.6213 34.1828 23.49C33.649 24.3586 32.885 25.0624 31.9755 25.5233C31.066 25.9841 30.0467 26.184 29.0306 26.1007C28.0144 26.0175 27.0412 25.6543 26.2189 25.0516L20.7078 21.0062C20.6045 22.3966 19.9794 23.6967 18.9579 24.6457C17.9364 25.5947 16.594 26.1225 15.1997 26.1235H15.1953Z" fill="#00A6A6"/>
</svg>
